<svg width="8" height="8" viewBox="0 0 8 8" fill="none" xmlns="http://www.w3.org/2000/svg">
<path fill-rule="evenodd" clip-rule="evenodd" d="M0 4.00063C0 3.86802 0.0526785 3.74085 0.146447 3.64708C0.240215 3.55331 0.367392 3.50063 0.5 3.50063H6.293L4.146 1.35463C4.05211 1.26075 3.99937 1.13341 3.99937 1.00063C3.99937 0.867856 4.05211 0.740518 4.146 0.646632C4.23989 0.552745 4.36722 0.5 4.5 0.5C4.63278 0.5 4.76011 0.552745 4.854 0.646632L7.854 3.64663C7.90056 3.69308 7.93751 3.74825 7.96271 3.809C7.98792 3.86974 8.00089 3.93486 8.00089 4.00063C8.00089 4.0664 7.98792 4.13152 7.96271 4.19227C7.93751 4.25301 7.90056 4.30819 7.854 4.35463L4.854 7.35463C4.76011 7.44852 4.63278 7.50126 4.5 7.50126C4.36722 7.50126 4.23989 7.44852 4.146 7.35463C4.05211 7.26075 3.99937 7.13341 3.99937 7.00063C3.99937 6.86786 4.05211 6.74052 4.146 6.64663L6.293 4.50063H0.5C0.367392 4.50063 0.240215 4.44795 0.146447 4.35419C0.0526785 4.26042 0 4.13324 0 4.00063Z" fill="#003767"/>
</svg>
