<svg width="14" height="14" viewBox="0 0 14 14" fill="none" xmlns="http://www.w3.org/2000/svg">
<path fill-rule="evenodd" clip-rule="evenodd" d="M7 12.6C3.913 12.6 1.4 10.087 1.4 7C1.4 3.913 3.913 1.4 7 1.4C10.087 1.4 12.6 3.913 12.6 7C12.6 10.087 10.087 12.6 7 12.6ZM6.3 3.5H7.35V7.14L10.5 9.03L9.94 9.94L6.3 7.7V3.5Z" fill="#003767"/>
<path fill-rule="evenodd" clip-rule="evenodd" d="M0 7C0 3.15 3.15 0 7 0C10.85 0 14 3.15 14 7C14 10.85 10.85 14 7 14C3.15 14 0 10.85 0 7ZM1.4 7C1.4 10.087 3.913 12.6 7 12.6C10.087 12.6 12.6 10.087 12.6 7C12.6 3.913 10.087 1.4 7 1.4C3.913 1.4 1.4 3.913 1.4 7Z" fill="#003767"/>
</svg>
