<svg width="38" height="48" viewBox="0 0 38 48" fill="none" xmlns="http://www.w3.org/2000/svg">
<path d="M19 0C8.92 0 0.71875 8.20125 0.71875 18.2812C0.71875 22.2703 1.97875 26.0606 4.36563 29.2406L17.8731 47.4329C17.9069 47.477 17.9584 47.4938 17.9959 47.5332C18.6709 48.256 19.645 48.0742 20.1259 47.4329C24.0156 42.2429 31.1453 32.55 33.8866 28.8938C33.8866 28.8938 33.8875 28.8909 33.8884 28.8891L33.9053 28.8666C36.1141 25.7634 37.2812 22.1034 37.2812 18.2812C37.2812 8.20125 29.08 0 19 0ZM19 28.1438C13.5728 28.1438 9.1375 23.7084 9.1375 18.2812C9.1375 12.8541 13.5728 8.41875 19 8.41875C24.4272 8.41875 28.8625 12.8541 28.8625 18.2812C28.8625 23.7084 24.4272 28.1438 19 28.1438Z" fill="#1D2C57"/>
</svg>
