<svg width="34" height="14" viewBox="0 0 34 14" fill="none" xmlns="http://www.w3.org/2000/svg">
<path d="M2.00065 3.66683H32.0007C32.4427 3.66683 32.8666 3.49123 33.1792 3.17867C33.4917 2.86611 33.6673 2.44219 33.6673 2.00016C33.6673 1.55814 33.4917 1.13421 33.1792 0.821652C32.8666 0.509091 32.4427 0.333496 32.0007 0.333496H2.00065C1.55862 0.333496 1.1347 0.509091 0.82214 0.821652C0.509579 1.13421 0.333984 1.55814 0.333984 2.00016C0.333984 2.44219 0.509579 2.86611 0.82214 3.17867C1.1347 3.49123 1.55862 3.66683 2.00065 3.66683ZM32.0007 10.3335H2.00065C1.55862 10.3335 1.1347 10.5091 0.82214 10.8217C0.509579 11.1342 0.333984 11.5581 0.333984 12.0002C0.333984 12.4422 0.509579 12.8661 0.82214 13.1787C1.1347 13.4912 1.55862 13.6668 2.00065 13.6668H32.0007C32.4427 13.6668 32.8666 13.4912 33.1792 13.1787C33.4917 12.8661 33.6673 12.4422 33.6673 12.0002C33.6673 11.5581 33.4917 11.1342 33.1792 10.8217C32.8666 10.5091 32.4427 10.3335 32.0007 10.3335Z" fill="#012646"/>
</svg>
