<svg width="48" height="48" viewBox="0 0 48 48" fill="none" xmlns="http://www.w3.org/2000/svg">
<path d="M46.6939 35.2272L39.9954 28.5286C37.6031 26.1363 33.5361 27.0933 32.5792 30.2033C31.8615 32.3565 29.4691 33.5526 27.316 33.0741C22.5313 31.8779 16.072 25.6578 14.8759 20.6339C14.1582 18.4807 15.5936 16.0884 17.7467 15.3708C20.8567 14.4138 21.8136 10.3469 19.4213 7.95452L12.7228 1.25598C10.8089 -0.418659 7.93809 -0.418659 6.26346 1.25598L1.71802 5.80142C-2.82742 10.5861 2.19649 23.2655 13.4405 34.5095C24.6845 45.7534 37.3638 51.0167 42.1485 46.2319L46.6939 41.6865C48.3687 39.7726 48.3687 36.9018 46.6939 35.2272Z" fill="#1D2C57"/>
</svg>
