<svg width="21" height="20" viewBox="0 0 21 20" fill="none" xmlns="http://www.w3.org/2000/svg">
<path d="M20.7114 18.3109L17.0014 14.6309C18.4415 12.8353 19.1389 10.5562 18.9502 8.2622C18.7615 5.9682 17.701 3.83368 15.9869 2.29754C14.2727 0.761407 12.0352 -0.0595894 9.73429 0.00337096C7.43341 0.0663314 5.24409 1.00846 3.61651 2.63604C1.98893 4.26362 1.0468 6.45294 0.98384 8.75382C0.920879 11.0547 1.74188 13.2923 3.27801 15.0064C4.81415 16.7206 6.94867 17.781 9.24267 17.9697C11.5367 18.1584 13.8158 17.461 15.6114 16.0209L19.2914 19.7009C19.3843 19.7946 19.4949 19.869 19.6168 19.9198C19.7387 19.9706 19.8694 19.9967 20.0014 19.9967C20.1334 19.9967 20.2641 19.9706 20.3859 19.9198C20.5078 19.869 20.6184 19.7946 20.7114 19.7009C20.8916 19.5144 20.9924 19.2652 20.9924 19.0059C20.9924 18.7466 20.8916 18.4974 20.7114 18.3109ZM10.0014 16.0209C8.6169 16.0209 7.26352 15.6104 6.11238 14.8412C4.96123 14.072 4.06403 12.9788 3.53421 11.6997C3.0044 10.4206 2.86578 9.01314 3.13587 7.65527C3.40597 6.2974 4.07265 5.05012 5.05162 4.07115C6.03059 3.09219 7.27787 2.4255 8.63574 2.1554C9.9936 1.88531 11.4011 2.02393 12.6802 2.55374C13.9592 3.08356 15.0525 3.98076 15.8217 5.13191C16.5908 6.28305 17.0014 7.63643 17.0014 9.0209C17.0014 10.8774 16.2639 12.6579 14.9511 13.9706C13.6384 15.2834 11.8579 16.0209 10.0014 16.0209Z" fill="#585858"/>
</svg>
