<svg width="40" height="40" viewBox="0 0 40 40" fill="none" xmlns="http://www.w3.org/2000/svg">
<path d="M39.3646 2.62538L22.8646 38.6254C22.7265 38.9269 22.4924 39.1742 22.1988 39.3286C21.9053 39.4829 21.5689 39.5357 21.2422 39.4785C20.9155 39.4213 20.6169 39.2575 20.3932 39.0126C20.1696 38.7678 20.0333 38.4557 20.0059 38.1251L18.6109 21.3901L1.87582 19.9951C1.5453 19.9676 1.2332 19.8314 0.988326 19.6077C0.743455 19.384 0.579623 19.0855 0.522454 18.7588C0.465285 18.4321 0.518002 18.0957 0.67236 17.8021C0.826719 17.5086 1.07401 17.2744 1.37557 17.1364L37.3756 0.636379C37.6539 0.508836 37.9645 0.469502 38.2658 0.523658C38.5672 0.577815 38.8447 0.722868 39.0612 0.939341C39.2776 1.15581 39.4227 1.43334 39.4768 1.73465C39.531 2.03596 39.4917 2.34662 39.3641 2.62493L39.3646 2.62538Z" fill="#1D2C57"/>
</svg>
