<svg width="40" height="40" viewBox="0 0 40 40" fill="none" xmlns="http://www.w3.org/2000/svg">
<circle cx="20" cy="20" r="19.5" fill="white" stroke="#DAE0E6"/>
<path fill-rule="evenodd" clip-rule="evenodd" d="M22.5937 14.1665C22.9756 14.1665 23.3417 14.319 23.6091 14.5885L25.418 16.3974C25.6873 16.6667 25.8386 17.0319 25.8386 17.4128C25.8386 17.7937 25.6873 18.1589 25.418 18.4282L18.8138 25.0304C18.4063 25.5004 17.8287 25.7891 17.1671 25.8345H14.1719V25.2512L14.1738 22.7924C14.2235 22.1773 14.5094 21.6054 14.9457 21.221L21.5775 14.5892C21.8464 14.3187 22.2122 14.1665 22.5937 14.1665ZM17.1311 24.6692C17.4427 24.6471 17.7328 24.5021 17.9657 24.2357L22.374 19.8274L20.1839 17.6373L15.7498 22.0703C15.5135 22.2793 15.3673 22.5718 15.3438 22.8393V24.6681L17.1311 24.6692ZM21.009 16.8124L23.1989 19.0024L24.5982 17.6032C24.6487 17.5526 24.6771 17.4841 24.6771 17.4127C24.6771 17.3412 24.6487 17.2727 24.5982 17.2222L22.7877 15.4117C22.7378 15.3614 22.6698 15.333 22.5989 15.333C22.5279 15.333 22.46 15.3614 22.41 15.4117L21.009 16.8124Z" fill="#101010"/>
</svg>
