<svg width="11" height="11" viewBox="0 0 11 11" fill="none" xmlns="http://www.w3.org/2000/svg">
<path fill-rule="evenodd" clip-rule="evenodd" d="M7.22258 0C7.54995 0 7.86377 0.13071 8.09296 0.361711L9.64341 1.91216C9.87425 2.143 10.0039 2.45608 10.0039 2.78254C10.0039 3.109 9.87425 3.42208 9.64341 3.65292L3.98266 9.31188C3.63342 9.71475 3.13836 9.96227 2.57121 10.0012H0.00390625V9.50116L0.00553007 7.39365C0.0481254 6.86642 0.29324 6.37617 0.667154 6.04671L6.3516 0.362314C6.5821 0.130415 6.89558 0 7.22258 0ZM2.54036 9.0023C2.80747 8.98339 3.05611 8.85908 3.25577 8.6307L7.03423 4.85223L5.15705 2.97497L1.35642 6.77468C1.15385 6.95385 1.02852 7.2045 1.00837 7.4338V9.00136L2.54036 9.0023ZM5.86424 2.26795L7.74134 4.14512L8.94077 2.9457C8.98407 2.9024 9.0084 2.84366 9.0084 2.78243C9.0084 2.72119 8.98407 2.66246 8.94077 2.61915L7.38893 1.06731C7.34611 1.02416 7.28784 0.999887 7.22704 0.999887C7.16625 0.999887 7.10798 1.02416 7.06516 1.06731L5.86424 2.26795Z" fill="#7A8193"/>
</svg>
