<svg width="40" height="40" viewBox="0 0 40 40" fill="none" xmlns="http://www.w3.org/2000/svg">
<circle cx="20" cy="20" r="19.5" fill="white" stroke="#DAE0E6"/>
<path d="M13.75 15.8335H15.1389H26.25" stroke="#101010" stroke-linecap="round" stroke-linejoin="round"/>
<path d="M25.3628 15.8334C25.3628 15.5573 25.139 15.3334 24.8628 15.3334C24.5867 15.3334 24.3628 15.5573 24.3628 15.8334H25.3628ZM15.6406 15.8334C15.6406 15.5573 15.4168 15.3334 15.1406 15.3334C14.8645 15.3334 14.6406 15.5573 14.6406 15.8334H15.6406ZM16.724 15.8332C16.724 16.1093 16.9478 16.3332 17.224 16.3332C17.5001 16.3332 17.724 16.1093 17.724 15.8332H16.724ZM22.2795 15.8332C22.2795 16.1093 22.5034 16.3332 22.7795 16.3332C23.0557 16.3332 23.2795 16.1093 23.2795 15.8332H22.2795ZM24.3628 15.8334V25.5556H25.3628V15.8334H24.3628ZM24.3628 25.5556C24.3628 26.0466 23.9649 26.4445 23.474 26.4445V27.4445C24.5172 27.4445 25.3628 26.5988 25.3628 25.5556H24.3628ZM23.474 26.4445H16.5295V27.4445H23.474V26.4445ZM16.5295 26.4445C16.0386 26.4445 15.6406 26.0466 15.6406 25.5556H14.6406C14.6406 26.5988 15.4863 27.4445 16.5295 27.4445V26.4445ZM15.6406 25.5556V15.8334H14.6406V25.5556H15.6406ZM17.724 15.8332V14.4443H16.724V15.8332H17.724ZM17.724 14.4443C17.724 13.9534 18.1219 13.5554 18.6128 13.5554V12.5554C17.5696 12.5554 16.724 13.4011 16.724 14.4443H17.724ZM18.6128 13.5554H21.3906V12.5554H18.6128V13.5554ZM21.3906 13.5554C21.8815 13.5554 22.2795 13.9534 22.2795 14.4443H23.2795C23.2795 13.4011 22.4338 12.5554 21.3906 12.5554V13.5554ZM22.2795 14.4443V15.8332H23.2795V14.4443H22.2795Z" fill="#101010"/>
<path d="M18.6133 19.3054V23.4721" stroke="#101010" stroke-linecap="round" stroke-linejoin="round"/>
<path d="M21.3906 19.3054V23.4721" stroke="#101010" stroke-linecap="round" stroke-linejoin="round"/>
</svg>
