<svg width="72" height="72" viewBox="0 0 72 72" fill="none" xmlns="http://www.w3.org/2000/svg">
<path opacity="0.5" d="M0.538817 32.8018L33.3406 32.8018C33.3406 14.6436 18.6237 8.84374e-07 0.538818 0L0.538817 32.8018Z" fill="#27C967"/>
<path opacity="0.8" d="M39.1982 71.4609L72 71.4609C72 53.376 57.3564 38.6592 39.1982 38.6592L39.1982 71.4609Z" fill="#27C967"/>
<path d="M4.56582 71.4609C3.17467 71.4609 2.44249 71.4609 1.92996 71.1681C1.49065 70.9484 1.05134 70.5091 0.83169 70.0698C0.538817 69.5573 0.538817 68.8251 0.538817 67.4339L0.538818 42.6862C0.538818 41.295 0.538818 40.5629 0.831691 40.0503C1.05135 39.611 1.49065 39.1717 1.92996 38.9521C2.44249 38.6592 3.17467 38.6592 4.56582 38.6592L33.3406 38.6592L33.3406 67.4339C33.3406 68.8251 33.3406 69.5573 33.0477 70.0698C32.828 70.5091 32.3887 70.9484 31.9494 71.1681C31.4369 71.4609 30.7047 71.4609 29.3136 71.4609L4.56582 71.4609Z" fill="#27C967"/>
</svg>
