<svg width="72" height="72" viewBox="0 0 72 72" fill="none" xmlns="http://www.w3.org/2000/svg">
<path opacity="0.5" d="M0.539061 32.8018L33.3408 32.8018C33.3408 14.6436 18.624 8.84374e-07 0.539062 0L0.539061 32.8018Z" fill="#E42281"/>
<path opacity="0.8" d="M39.1982 71.4609L72 71.4609C72 53.376 57.3564 38.6592 39.1982 38.6592L39.1982 71.4609Z" fill="#E42281"/>
<path d="M4.56606 71.4609C3.17492 71.4609 2.44273 71.4609 1.93021 71.1681C1.4909 70.9484 1.05159 70.5091 0.831934 70.0698C0.539061 69.5573 0.539061 68.8251 0.539061 67.4339L0.539062 42.6862C0.539062 41.295 0.539062 40.5629 0.831935 40.0503C1.05159 39.611 1.4909 39.1717 1.93021 38.9521C2.44274 38.6592 3.17492 38.6592 4.56606 38.6592L33.3408 38.6592L33.3408 67.4339C33.3408 68.8251 33.3408 69.5573 33.0479 70.0698C32.8283 70.5091 32.389 70.9484 31.9497 71.1681C31.4371 71.4609 30.705 71.4609 29.3138 71.4609L4.56606 71.4609Z" fill="#E42281"/>
</svg>
