<svg width="71" height="71" viewBox="0 0 71 71" fill="none" xmlns="http://www.w3.org/2000/svg">
<path opacity="0.5" d="M-1.59293e-06 32.5744L32.5744 32.5744C32.5744 14.5421 17.9595 8.78244e-07 0 0L-1.59293e-06 32.5744Z" fill="#F9C63b"/>
<path opacity="0.8" d="M38.3914 70.9657L70.9658 70.9657C70.9658 53.0062 56.4237 38.3914 38.3914 38.3914L38.3914 70.9657Z" fill="#F9C63b"/>
<path d="M3.99908 70.9657C2.61758 70.9657 1.89048 70.9657 1.3815 70.6749C0.945237 70.4568 0.508973 70.0205 0.290841 69.5842C-1.50048e-06 69.0753 -1.46492e-06 68.3482 -1.39737e-06 66.9667L-1.9556e-07 42.3904C-1.28003e-07 41.0089 -9.24468e-08 40.2818 0.290843 39.7729C0.508975 39.3366 0.945239 38.9003 1.3815 38.6822C1.89048 38.3914 2.61758 38.3914 3.99909 38.3914L32.5744 38.3914L32.5744 66.9667C32.5744 68.3482 32.5744 69.0753 32.2835 69.5842C32.0654 70.0205 31.6291 70.4568 31.1929 70.6749C30.6839 70.9657 29.9568 70.9657 28.5753 70.9657L3.99908 70.9657Z" fill="#F9C63b"/>
</svg>
