<svg width="62" height="66" viewBox="0 0 62 66" fill="none" xmlns="http://www.w3.org/2000/svg">
<path d="M11.9665 58.7852L9.9228 42.0273H7.03027L9.38836 61.3633H18.9724L18.1863 58.7852H11.9665Z" fill="#EEF6FC"/>
<path d="M55.2634 41.7543L50.5174 44.3148L46.5929 47.0089C46.5253 47.1514 46.4212 47.2734 46.2912 47.3626C46.1612 47.4519 46.01 47.5052 45.8528 47.5172L41.5419 50.477C39.4772 51.4791 37.1481 51.8013 34.8889 51.3974L25.2622 49.6248C24.1594 49.3539 22.995 49.5124 22.0047 50.0681C21.9905 50.076 21.9766 50.0844 21.963 50.093L18.1567 52.4992L19.024 55.344L23.2521 52.6712C23.2658 52.6625 23.2797 52.6541 23.2939 52.6463C24.2841 52.0905 25.4486 51.932 26.5514 52.203L36.1781 53.9756C38.4373 54.3794 40.7664 54.0572 42.8311 53.0552L58.6773 42.1755C58.2227 41.7589 57.6496 41.4945 57.0377 41.419C56.4258 41.3435 55.8056 41.4608 55.2634 41.7543Z" fill="#EEF6FC"/>
<path d="M13.7822 60.679C14.2666 60.679 14.7402 60.5353 15.1429 60.2662C15.5457 59.9971 15.8596 59.6146 16.045 59.167C16.2304 58.7195 16.2789 58.227 16.1844 57.7519C16.0899 57.2768 15.8566 56.8404 15.5141 56.4979C15.1716 56.1553 14.7351 55.9221 14.26 55.8276C13.7849 55.7331 13.2925 55.7816 12.845 55.967C12.3974 56.1523 12.0149 56.4663 11.7458 56.869C11.4767 57.2718 11.333 57.7453 11.333 58.2297C11.3338 58.8791 11.592 59.5016 12.0512 59.9608C12.5104 60.4199 13.1329 60.6782 13.7822 60.679ZM13.7822 57.5852C13.9097 57.5852 14.0343 57.623 14.1403 57.6938C14.2463 57.7647 14.3289 57.8653 14.3777 57.9831C14.4265 58.1009 14.4392 58.2305 14.4144 58.3555C14.3895 58.4805 14.3281 58.5954 14.238 58.6855C14.1478 58.7756 14.033 58.837 13.908 58.8619C13.7829 58.8868 13.6533 58.874 13.5356 58.8252C13.4178 58.7764 13.3171 58.6938 13.2463 58.5878C13.1755 58.4818 13.1377 58.3572 13.1377 58.2297C13.1379 58.0589 13.2059 57.895 13.3267 57.7742C13.4475 57.6534 13.6113 57.5854 13.7822 57.5852Z" fill="#50AC97"/>
<path d="M18.7337 21.2493L21.1821 21.4853C21.4601 22.4935 21.8674 23.4615 22.3939 24.3652L20.8389 26.2429C20.6954 26.416 20.6217 26.6364 20.6322 26.861C20.6427 27.0856 20.7367 27.2981 20.8957 27.4571L23.8319 30.3933C23.9908 30.5522 24.2033 30.6461 24.4277 30.6566C24.6522 30.6672 24.8725 30.5936 25.0456 30.4503L26.9276 28.8911C27.8306 29.4161 28.7965 29.8244 29.8022 30.1062L30.0382 32.5554C30.06 32.7788 30.1641 32.986 30.3304 33.1367C30.4967 33.2873 30.7131 33.3707 30.9375 33.3704H35.1004C35.3247 33.3704 35.541 33.2868 35.7071 33.136C35.8732 32.9851 35.9771 32.7778 35.9986 32.5545L36.2346 30.1062C37.2428 29.8282 38.2108 29.4209 39.1144 28.8945L40.9922 30.4497C41.1652 30.593 41.3855 30.6666 41.61 30.6561C41.8344 30.6455 42.0468 30.5516 42.2057 30.3928L45.1416 27.4571C45.3005 27.2982 45.3944 27.0857 45.405 26.8613C45.4155 26.6368 45.342 26.4165 45.1987 26.2434L43.6389 24.3614C44.164 23.4581 44.5724 22.4919 44.8542 21.4859L47.2668 21.2503C47.4899 21.2286 47.6969 21.1245 47.8475 20.9585C47.9981 20.7925 48.0815 20.5764 48.0815 20.3523V16.1883C48.0815 15.964 47.998 15.7477 47.8472 15.5816C47.6964 15.4156 47.4891 15.3116 47.2658 15.2901L44.8174 15.0542C44.5394 14.046 44.1321 13.078 43.6056 12.1743L45.1606 10.2965C45.3033 10.1242 45.3769 9.90512 45.3671 9.68166C45.3573 9.45819 45.2649 9.24632 45.1078 9.08713L42.2093 6.15078C42.0508 5.99032 41.8379 5.89507 41.6126 5.88378C41.3873 5.8725 41.166 5.946 40.9922 6.08981L39.1102 7.64957C38.2072 7.12459 37.2413 6.71631 36.2355 6.4345L35.9995 3.98528C35.978 3.76197 35.8741 3.55467 35.708 3.40383C35.542 3.25299 35.3256 3.16943 35.1013 3.16943H30.9375C30.7132 3.16943 30.4968 3.25299 30.3308 3.40383C30.1647 3.55467 30.0608 3.76197 30.0393 3.98528L29.8031 6.43334C28.7949 6.71131 27.827 7.1186 26.9234 7.64506L25.0455 6.08981C24.8724 5.94648 24.6521 5.87288 24.4276 5.88342C24.2031 5.89396 23.9907 5.98787 23.8318 6.14678L20.8957 9.08301C20.7368 9.24188 20.6429 9.45431 20.6324 9.67875C20.6219 9.90318 20.6954 10.1235 20.8387 10.2965L22.3985 12.1793C21.8735 13.0823 21.4652 14.0482 21.1834 15.0539L18.7342 15.29C18.5108 15.3114 18.3034 15.4153 18.1525 15.5814C18.0015 15.7475 17.9179 15.9639 17.918 16.1883V20.3511C17.918 20.5754 18.0015 20.7917 18.1523 20.9578C18.3031 21.1238 18.5104 21.2278 18.7337 21.2493ZM19.7227 17.0079L21.9914 16.7888C22.1818 16.7704 22.3615 16.6919 22.5044 16.5648C22.6474 16.4376 22.7462 16.2683 22.7866 16.0813C23.0637 14.8378 23.5634 13.6546 24.2617 12.589C24.3657 12.4279 24.4156 12.2378 24.4042 12.0464C24.3929 11.8549 24.3208 11.6721 24.1985 11.5244L22.7526 9.7782L24.5271 8.00368L26.273 9.44962C26.4225 9.57345 26.608 9.64578 26.8018 9.65586C26.9957 9.66594 27.1876 9.61323 27.3491 9.50556C28.4085 8.80467 29.589 8.30712 30.8305 8.03835C31.0175 7.99791 31.1868 7.89907 31.314 7.7561C31.4412 7.61314 31.5196 7.43345 31.5379 7.243L31.7571 4.97425H34.2811L34.5002 7.243C34.5186 7.43345 34.597 7.61314 34.7242 7.7561C34.8513 7.89907 35.0206 7.99791 35.2076 8.03835C36.4515 8.31515 37.635 8.81472 38.701 9.51291C38.8622 9.61689 39.0523 9.66682 39.2437 9.65543C39.4352 9.64405 39.6181 9.57196 39.7658 9.44962L41.5077 8.00703L43.2524 9.7742L41.8015 11.5242C41.6777 11.6737 41.6054 11.8592 41.5954 12.053C41.5854 12.2468 41.6381 12.4387 41.7458 12.6002C42.4466 13.6596 42.9441 14.8402 43.2129 16.0816C43.2533 16.2686 43.3521 16.4379 43.4951 16.565C43.638 16.6922 43.8176 16.7706 44.0081 16.789L46.2768 17.0082V19.5328L44.0438 19.7508C43.8535 19.7693 43.6741 19.8478 43.5313 19.975C43.3886 20.1021 43.2899 20.2713 43.2495 20.4581C42.9727 21.702 42.4732 22.8855 41.7749 23.9514C41.6709 24.1126 41.621 24.3027 41.6323 24.4942C41.6437 24.6856 41.7157 24.8685 41.8381 25.0162L43.2847 26.761L41.5101 28.5355L39.7641 27.0895C39.6146 26.9657 39.4292 26.8934 39.2353 26.8833C39.0415 26.8732 38.8495 26.9259 38.688 27.0336C37.6287 27.7346 36.4481 28.2323 35.2066 28.5012C35.0196 28.5416 34.8503 28.6405 34.7231 28.7834C34.596 28.9264 34.5175 29.1061 34.4992 29.2965L34.28 31.5653H31.7561L31.5369 29.2965C31.5185 29.1061 31.4401 28.9264 31.313 28.7834C31.1858 28.6405 31.0165 28.5416 30.8295 28.5012C29.5858 28.2243 28.4026 27.7248 27.3368 27.0266C27.1756 26.9227 26.9855 26.8727 26.794 26.8841C26.6026 26.8955 26.4197 26.9676 26.272 27.0899L24.5261 28.5359L22.7526 26.761L24.1985 25.0149C24.3223 24.8654 24.3946 24.6799 24.4046 24.4861C24.4147 24.2922 24.3619 24.1003 24.2542 23.9388C23.5535 22.8794 23.056 21.6989 22.7871 20.4574C22.7467 20.2704 22.6479 20.1012 22.5049 19.974C22.362 19.8468 22.1824 19.7684 21.9919 19.75L19.7232 19.5309L19.7227 17.0079Z" fill="#50AC97"/>
<path d="M33.0186 27.2766C34.8 27.2766 36.5415 26.7484 38.0228 25.7586C39.504 24.7689 40.6585 23.3621 41.3403 21.7162C42.022 20.0703 42.2004 18.2593 41.8528 16.512C41.5052 14.7648 40.6474 13.1598 39.3877 11.9001C38.1279 10.6404 36.523 9.78256 34.7757 9.43502C33.0285 9.08749 31.2174 9.26588 29.5715 9.94765C27.9256 10.6294 26.5189 11.7839 25.5292 13.2652C24.5395 14.7465 24.0112 16.4879 24.0112 18.2694C24.0139 20.6575 24.9638 22.9469 26.6524 24.6355C28.341 26.3241 30.6305 27.274 33.0186 27.2766ZM33.0186 11.0668C34.4431 11.0668 35.8357 11.4892 37.0201 12.2806C38.2046 13.0721 39.1278 14.197 39.6729 15.5131C40.2181 16.8292 40.3607 18.2774 40.0828 19.6746C39.8049 21.0718 39.1189 22.3552 38.1116 23.3625C37.1043 24.3698 35.8209 25.0558 34.4237 25.3337C33.0266 25.6116 31.5783 25.4689 30.2622 24.9238C28.9461 24.3786 27.8212 23.4555 27.0298 22.271C26.2383 21.0865 25.8159 19.694 25.8159 18.2694C25.8182 16.3599 26.5778 14.5293 27.9281 13.179C29.2783 11.8288 31.109 11.0694 33.0186 11.0672V11.0668Z" fill="#50AC97"/>
<path d="M15.0482 45.2996C16.3374 45.0617 17.5367 44.475 18.5158 43.6034L20.0867 42.2049C21.5207 41.1287 23.2237 40.4688 25.0084 40.2978C26.7932 40.1269 28.5905 40.4515 30.2027 41.2359L30.865 41.5562C32.0246 42.1152 33.2951 42.4063 34.5824 42.408H41.0051C41.8669 42.4091 42.7038 42.6971 43.3838 43.2265C44.0638 43.756 44.5482 44.4967 44.7606 45.332L40.3425 45.1321C38.6389 45.0553 36.9318 45.1341 35.2426 45.3676C35.1252 45.3838 35.0121 45.423 34.9099 45.483C34.8077 45.5429 34.7182 45.6224 34.6467 45.7169C34.5752 45.8114 34.523 45.9191 34.4931 46.0337C34.4632 46.1484 34.4562 46.2678 34.4724 46.3852C34.4887 46.5026 34.5279 46.6157 34.5878 46.7179C34.6477 46.8201 34.7272 46.9095 34.8217 46.9811C34.9162 47.0526 35.0239 47.1048 35.1386 47.1347C35.2532 47.1646 35.3727 47.1716 35.4901 47.1554C37.0703 46.937 38.6672 46.8632 40.2609 46.935L45.7394 47.1828C45.7523 47.1828 45.7666 47.1837 45.7801 47.1837C46.0194 47.1837 46.249 47.0887 46.4182 46.9194C46.5874 46.7502 46.6825 46.5207 46.6825 46.2814C46.6825 46.201 46.6798 46.121 46.6765 46.0414L47.3261 45.6989L55.2629 41.4171C55.805 41.1235 56.4251 41.0063 57.037 41.0818C57.6489 41.1572 58.2219 41.4217 58.6764 41.8383L42.8305 52.7179C40.7657 53.72 38.4366 54.0422 36.1774 53.6383L26.5507 51.8656C25.4479 51.5949 24.2834 51.7534 23.2931 52.309C23.279 52.317 23.265 52.3253 23.2514 52.3339L18.0231 55.6391C17.923 55.7024 17.8363 55.7848 17.768 55.8817C17.6996 55.9785 17.6511 56.0878 17.625 56.2034C17.599 56.319 17.5959 56.4386 17.6161 56.5554C17.6363 56.6722 17.6793 56.7838 17.7426 56.884C17.8059 56.9842 17.8883 57.0709 17.9852 57.1392C18.082 57.2075 18.1913 57.2561 18.3069 57.2821C18.4225 57.3082 18.5421 57.3112 18.6589 57.291C18.7757 57.2709 18.8873 57.2279 18.9875 57.1646L24.1937 53.8732C24.7876 53.5466 25.4832 53.4573 26.1402 53.6233C26.1588 53.628 26.1776 53.6321 26.1966 53.6361L35.8528 55.4143C38.5154 55.8908 41.2605 55.5032 43.6871 54.3083C43.7254 54.2894 43.7622 54.2679 43.7974 54.2438L60.4993 42.7763C60.6889 42.6461 60.8216 42.4485 60.8704 42.2237C60.9191 41.999 60.8802 41.7641 60.7616 41.567C60.1299 40.5148 59.1166 39.7468 57.9328 39.423C56.7489 39.0992 55.4858 39.2447 54.4065 39.829L54.2511 39.9128C53.0355 38.5403 51.0155 38.0277 49.4658 38.8133L49.4457 38.8239L48.8816 39.1277C48.0522 38.4584 47.0397 38.0554 45.9771 37.9717C44.9145 37.8879 43.8515 38.1274 42.9274 38.6587L39.3514 40.6033H34.5819C33.5667 40.602 32.5647 40.3724 31.6502 39.9315L30.988 39.6113C29.0719 38.6789 26.9352 38.295 24.8145 38.502C22.6937 38.7091 20.6716 39.499 18.972 40.7843C18.9522 40.7991 18.9333 40.8149 18.9145 40.8312L17.3153 42.2555C16.5826 42.9079 15.6852 43.3469 14.7204 43.525C14.6039 43.5465 14.4927 43.5908 14.3933 43.6553C14.2939 43.7197 14.2081 43.8032 14.141 43.9008C14.0738 43.9984 14.0265 44.1083 14.0018 44.2242C13.9771 44.3401 13.9754 44.4598 13.9969 44.5763C14.0185 44.6928 14.0627 44.804 14.1272 44.9034C14.1917 45.0028 14.2751 45.0886 14.3728 45.1558C14.5699 45.2914 14.8129 45.3432 15.0482 45.2998V45.2996ZM52.578 40.8154L46.4776 44.1065L46.2888 44.2061C46.1126 43.759 45.8802 43.336 45.5973 42.9475L50.2907 40.4186C51.0227 40.0534 51.9283 40.2991 52.578 40.8154ZM43.7995 40.2385C43.8067 40.2347 43.8139 40.2307 43.8209 40.2267C44.3116 39.9428 44.8642 39.7832 45.4306 39.7617C45.9971 39.7402 46.5602 39.8575 47.071 40.1033L44.2479 41.6244C43.7653 41.2866 43.233 41.0263 42.67 40.8528L43.7995 40.2385Z" fill="#2A6877"/>
<path d="M31.4086 21.0238C31.5772 21.1883 31.8034 21.2805 32.039 21.2805C32.2745 21.2805 32.5008 21.1883 32.6693 21.0238L36.9885 16.8069C37.0743 16.7243 37.1429 16.6256 37.1904 16.5165C37.2379 16.4073 37.2633 16.2898 37.2652 16.1707C37.2671 16.0517 37.2454 15.9335 37.2014 15.8228C37.1573 15.7122 37.0919 15.6114 37.0087 15.5262C36.9255 15.441 36.8263 15.3731 36.7168 15.3264C36.6073 15.2797 36.4896 15.2552 36.3705 15.2542C36.2515 15.2532 36.1334 15.2758 36.0231 15.3206C35.9128 15.3655 35.8125 15.4317 35.7279 15.5155L32.039 19.1167L30.2718 17.3915C30.1872 17.3077 30.0869 17.2414 29.9766 17.1966C29.8663 17.1517 29.7482 17.1292 29.6292 17.1302C29.5101 17.1311 29.3924 17.1557 29.2829 17.2024C29.1734 17.2491 29.0742 17.317 28.991 17.4022C28.9078 17.4874 28.8424 17.5882 28.7983 17.6988C28.7543 17.8094 28.7326 17.9277 28.7345 18.0467C28.7364 18.1658 28.7618 18.2833 28.8093 18.3924C28.8568 18.5016 28.9254 18.6003 29.0112 18.6828L31.4086 21.0238Z" fill="#2A6877"/>
<path d="M7.69397 62.0376C7.72064 62.2564 7.82646 62.4579 7.99145 62.604C8.15645 62.7501 8.36922 62.8308 8.58961 62.8308H20.1912C20.3322 62.8309 20.4713 62.7979 20.5973 62.7345C20.7233 62.6711 20.8327 62.579 20.9167 62.4657C21.0007 62.3524 21.0569 62.221 21.0809 62.082C21.1049 61.943 21.096 61.8003 21.0548 61.6654L14.6095 40.5247C14.5532 40.3398 14.4389 40.1778 14.2835 40.0627C14.1281 39.9477 13.9399 39.8855 13.7465 39.8855H6.01213C5.88443 39.8855 5.75817 39.9126 5.64173 39.9651C5.52528 40.0175 5.42129 40.094 5.33663 40.1897C5.25197 40.2853 5.18857 40.3978 5.15062 40.5197C5.11267 40.6417 5.10104 40.7703 5.11649 40.897L7.69397 62.0376ZM13.0776 41.6902L18.9728 61.0261H9.38857L7.03049 41.6902H13.0776Z" fill="#50AC97"/>
</svg>
