<svg width="78" height="42" viewBox="0 0 78 42" fill="none" xmlns="http://www.w3.org/2000/svg">
<path d="M57.1025 0C51.0422 0 45.5566 2.61846 41.7428 6.80798H48.3255C50.8855 5.23691 53.8634 4.29424 57.1025 4.29424C66.2974 4.29424 73.7682 11.783 73.7682 21C73.7682 30.217 66.2974 37.7058 57.1025 37.7058C53.5499 37.7058 50.3108 36.606 47.5941 34.7207L42.6832 36.187C46.4447 39.8005 51.5124 42 57.1025 42C68.6484 42 78 32.6259 78 21.0524C78 9.37405 68.5961 0 57.1025 0Z" fill="white"/>
<path d="M16.718 16.3392C16.8225 10.7357 21.5244 9.00757 24.7636 9.00757C29.3088 9.00757 32.1299 12.0974 32.1299 15.449C32.1299 18.6959 29.8835 19.9004 29.0476 20.3717C33.436 21.8904 33.436 25.242 33.436 26.08C33.436 30.1647 29.4655 33.464 24.7636 33.464C22.0469 33.464 18.9645 32.4166 17.4494 30.1647C16.4046 28.646 16.2478 26.8654 16.1433 26.0275H22.2036C22.3081 26.5512 22.7261 28.1747 24.9203 28.2271C26.6443 28.2271 27.4802 27.075 27.4802 25.6086C27.4802 23.4091 25.1815 23.1996 24.3456 23.1996H22.2036V18.8006H23.1962C23.7187 18.8006 26.1219 18.8006 26.1219 16.444C26.1219 15.449 25.6517 14.4016 24.4501 14.4016C22.7261 14.4016 22.6216 15.868 22.6216 16.444H16.718V16.3392Z" fill="white"/>
<path d="M38.0335 24.9278C38.0335 27.0749 39.7575 28.1747 41.2204 28.1747C42.9967 28.1747 44.5117 26.8654 44.5117 24.9801C44.5117 23.4614 43.3624 21.7856 41.2204 21.7856C39.2873 21.7856 38.0335 23.2519 38.0335 24.9278ZM47.0717 9.47887L42.8399 15.2918C42.5787 15.7108 42.213 16.1297 41.8995 16.5487C41.9518 16.6011 42.6832 16.4963 43.1011 16.4963C46.5492 16.4963 50.4675 19.1148 50.4675 24.4564C50.4675 29.8504 46.3403 33.4116 41.3771 33.4116C38.4514 33.4116 35.6825 32.3118 34.1152 30.217C32.6001 28.5412 32.1299 26.1323 32.1299 24.2994C32.1299 21.8904 33.1226 19.7956 34.2719 18.0151L40.1232 9.42651H47.0717V9.47887Z" fill="white"/>
<path d="M65.4615 9.47876L61.8044 14.5062H56.2143L55.6919 17.7007C56.3188 17.3342 56.998 17.0199 58.8788 17.0199C64.4166 17.0199 66.7153 21.6808 66.7153 24.8753C66.7153 28.4888 63.9987 33.4115 57.7294 33.4115C52.714 33.4115 49.4749 30.3741 48.7957 26.6559H54.7515C55.2739 27.389 56.2666 28.1222 57.5204 28.1222C59.2445 28.1222 60.7073 26.7082 60.7073 25.0324C60.7073 23.5137 59.6102 21.9426 57.5204 21.9426C56.3711 21.9426 55.1695 22.414 54.438 23.985L49.5794 22.7805L51.6169 9.47876H65.4615Z" fill="white"/>
<path d="M0 19.3766H1.09712V23.6708H2.66444V19.3766H3.70931V17.9626H0V19.3766Z" fill="white"/>
<path d="M4.284 23.6708H7.52311V22.2569H5.85131V21.4714H7.47087V20.0574H5.85131V19.3766H7.52311V17.9626H4.284V23.6708Z" fill="white"/>
<path d="M11.1802 21.5761H10.2398L10.71 20.0574L11.1802 21.5761ZM10.0831 17.9626L7.83657 23.6185H9.56062L9.82184 22.8329H11.5981L11.8593 23.6185H13.5834L11.3892 17.9626H10.0831Z" fill="white"/>
<path d="M17.8151 17.9626L16.927 21.2619L15.9344 17.9626H13.8969V23.6708H15.4119L15.3597 20.1098L16.3523 23.6708H17.4494L18.4421 20.1098L18.3898 23.6708H19.8526V17.9626H17.8151Z" fill="white"/>
</svg>
