<svg width="110" height="110" viewBox="0 0 110 110" fill="none" xmlns="http://www.w3.org/2000/svg">
<circle cx="55" cy="55" r="54.5" fill="white" stroke="white"/>
<path d="M68.5333 52.2288C70.1085 53.1382 70.8961 53.593 71.1604 54.1866C71.391 54.7044 71.391 55.2957 71.1604 55.8136C70.8961 56.4072 70.1085 56.8619 68.5333 57.7714L50.6333 68.1059C49.0582 69.0154 48.2706 69.4701 47.6243 69.4022C47.0606 69.3429 46.5485 69.0472 46.2153 68.5887C45.8333 68.063 45.8333 67.1535 45.8333 65.3347L45.8333 44.6655C45.8333 42.8466 45.8333 41.9372 46.2153 41.4115C46.5485 40.9529 47.0606 40.6573 47.6243 40.598C48.2706 40.5301 49.0582 40.9848 50.6333 41.8942L68.5333 52.2288Z" fill="#E42281"/>
</svg>
