<svg width="120" height="120" viewBox="0 0 120 120" fill="none" xmlns="http://www.w3.org/2000/svg">
<circle cx="60" cy="60" r="60" fill="#4CA4FD" fill-opacity="0.1"/>
<g clip-path="url(#clip0_306_608)">
<path d="M79.7304 51.9931L84.4942 51.6907C84.5023 51.6901 84.5109 51.6894 84.5196 51.6888C87.9145 51.4018 90.9617 49.6199 92.8806 46.7985L96.6467 41.2624C99.9246 36.4427 101.195 30.6215 100.222 24.8715C100.03 23.7422 99.4539 22.7015 98.599 21.9423C97.7434 21.1824 96.6436 20.7336 95.5016 20.6791C89.6855 20.4002 84.0717 22.3619 79.6896 26.2004L74.6554 30.6103C72.09 32.8571 70.6895 36.1018 70.812 39.5139C70.8126 39.5219 70.8126 39.5306 70.8133 39.5393L71.0848 44.3137C71.1906 46.175 70.5095 48.0115 69.2197 49.349L29.8903 89.8313C28.8375 90.9315 28.2937 92.4407 28.3599 94.0814C28.4329 95.8875 29.26 97.6614 30.5726 98.8272C31.7585 99.8803 33.3885 100.48 35.0179 100.48C35.1923 100.48 35.3668 100.473 35.5406 100.459C37.1743 100.328 38.6052 99.607 39.5739 98.4206L74.9622 54.455C76.1357 53.0084 77.874 52.1109 79.7304 51.9931ZM73.073 52.9229L37.6878 96.8848C37.1471 97.5467 36.3157 97.9545 35.347 98.032C34.1945 98.1244 33.013 97.7401 32.1853 97.005C31.3576 96.2693 30.8355 95.14 30.7891 93.9828C30.7496 93.0103 31.0533 92.1345 31.6385 91.5234L70.9648 51.0442C72.7278 49.2164 73.6557 46.713 73.5122 44.1755L73.2406 39.4135C73.1485 36.7427 74.2465 34.2033 76.2551 32.4437L81.2893 28.0338C85.1964 24.6118 90.2033 22.8645 95.3859 23.1112C95.9761 23.1397 96.544 23.3715 96.9863 23.7645C97.4286 24.1568 97.7261 24.6948 97.8251 25.2781C98.6924 30.4045 97.5603 35.5936 94.6381 39.8901L90.872 45.4269C89.3694 47.6359 86.9847 49.0323 84.3272 49.261L79.5764 49.5622C77.045 49.7234 74.6758 50.9469 73.073 52.9229Z" fill="#4CA4FD"/>
<path d="M98.2952 89.5239L71.9249 65.4585C71.4287 65.0054 70.6604 65.0414 70.2076 65.5385C69.756 66.0356 69.7919 66.806 70.288 67.2591L96.6516 91.3189C97.2789 91.8996 97.6345 92.7556 97.6537 93.7287C97.6766 94.8865 97.2232 96.0449 96.4406 96.829C95.6587 97.6124 94.5044 98.068 93.3464 98.0444C92.3752 98.0252 91.5209 97.6688 90.9475 97.0472L67.4493 71.1986C66.9971 70.7009 66.2282 70.6656 65.732 71.118C65.2359 71.5711 65.2 72.3415 65.6522 72.8386L89.156 98.6934C90.1891 99.8128 91.6601 100.447 93.2988 100.48C93.3415 100.48 93.3835 100.481 93.4262 100.481C95.1874 100.481 96.9485 99.765 98.1591 98.5514C99.4 97.3081 100.119 95.4877 100.084 93.681C100.051 92.0391 99.4186 90.5652 98.2952 89.5239Z" fill="#4CA4FD"/>
<path d="M34.1253 51.7627C36.137 53.6196 38.7506 54.6783 41.4848 54.744C41.4935 54.7446 41.5021 54.7446 41.5102 54.7446L46.2833 54.7595C48.144 54.765 49.9324 55.5565 51.1876 56.9269L53.2902 59.2394C53.5302 59.5035 53.8587 59.6374 54.189 59.6374C54.481 59.6374 54.7742 59.5326 55.0068 59.32C55.5035 58.8669 55.5394 58.0965 55.0872 57.5994L52.9815 55.2838C51.2667 53.4107 48.8282 52.3323 46.2913 52.3236L41.5312 52.3087C39.4162 52.2548 37.394 51.4435 35.8271 50.0222L21.9945 33.5465C21.8535 33.3779 21.864 33.1337 22.0193 32.9781C22.1257 32.8709 22.2506 32.8554 22.3156 32.8554C22.3805 32.8554 22.5055 32.8709 22.6125 32.9781L35.2035 45.5943C36.4481 46.8414 38.4734 46.8414 39.7181 45.5937L41.1978 44.1117V44.1111L43.825 41.4788C43.825 41.4788 43.8256 41.4788 43.8256 41.4782L43.8262 41.4775L45.3053 39.9956C46.5499 38.7485 46.5499 36.7193 45.3053 35.4722L32.7143 22.8566C32.551 22.693 32.551 22.4258 32.7143 22.2622C32.8695 22.1066 33.1133 22.0961 33.2815 22.2374L49.7252 36.0976C51.1443 37.667 51.954 39.6937 52.0078 41.8122L52.022 46.5823C52.0307 49.1235 53.1077 51.5668 54.9796 53.2886L57.2325 55.3446C57.7293 55.7976 58.4976 55.7617 58.9498 55.2646C59.4013 54.7669 59.3655 53.9971 58.8693 53.544L56.6201 51.4912C55.2487 50.2305 54.4593 48.438 54.4531 46.5742L54.4383 41.7918C54.4383 41.7831 54.4383 41.7744 54.4377 41.7658C54.3721 39.0262 53.3155 36.4075 51.4622 34.3919C51.4276 34.3541 51.3905 34.3181 51.3509 34.2846L34.846 20.3736C33.7053 19.4117 32.0499 19.4836 30.9958 20.5397C29.8842 21.6535 29.8842 23.4652 30.9958 24.5784L43.5868 37.1947C43.8837 37.4922 43.8837 37.9762 43.5868 38.2737L42.9663 38.8948L28.9334 24.835C28.4589 24.359 27.6894 24.359 27.2149 24.835C26.7404 25.3104 26.7404 26.0815 27.2149 26.5569L41.2479 40.6172L40.3385 41.5277L26.3056 27.468C25.8311 26.9926 25.0616 26.9926 24.5871 27.468C24.112 27.9434 24.112 28.7144 24.5871 29.1898L38.6194 43.2502L37.9996 43.8719C37.7027 44.1694 37.2195 44.1694 36.9226 43.8719L24.331 31.2563C23.7928 30.717 23.0771 30.4195 22.3156 30.4195C21.5541 30.4195 20.8384 30.717 20.3002 31.2563C19.2461 32.3124 19.1749 33.971 20.1344 35.1146L34.0189 51.6511C34.0517 51.6908 34.0876 51.728 34.1253 51.7627Z" fill="#4CA4FD"/>
</g>
<defs>
<clipPath id="clip0_306_608">
<rect width="81.0811" height="81.0811" fill="white" transform="translate(19.4595 19.4594)"/>
</clipPath>
</defs>
</svg>
