<svg width="120" height="120" viewBox="0 0 120 120" fill="none" xmlns="http://www.w3.org/2000/svg">
<circle cx="60" cy="60" r="60" fill="#4CA4FD" fill-opacity="0.1"/>
<g clip-path="url(#clip0_306_614)">
<path d="M92.5029 89.4939C92.4395 86.132 90.2534 83.1672 87.0609 82.114L85.9007 81.7304C87.7108 78.255 86.8227 74.6443 83.8759 71.7186C82.7365 70.5866 82.1107 69.0202 82.1133 67.3218L82.1137 61.7664C82.1137 61.119 81.5891 60.5944 80.9417 60.5944C80.2943 60.5944 79.7697 61.119 79.7697 61.7664V67.2718C79.7569 69.6234 80.6301 71.7986 82.2238 73.3813C87.2953 78.3924 83.0289 83.3213 77.6343 85.8651C67.0069 91.0999 45.8732 91.1091 37.2408 82.1701C36.0928 80.8451 35.5105 79.4633 35.5105 78.0626C35.5105 76.452 36.274 74.877 37.7796 73.3813C39.366 71.805 40.2377 69.6468 40.2338 67.2905V38.916C40.2338 33.6175 42.3002 28.6402 46.0523 24.9009C58.4677 12.4676 79.807 21.5268 79.7697 39.1435C79.7698 39.1432 79.7698 57.0481 79.7698 57.0481C79.8231 58.5982 82.058 58.602 82.1138 57.0481V39.1432C82.158 19.4677 58.273 9.33266 44.3976 23.2407C40.201 27.4227 37.8898 32.9897 37.8898 38.9159C37.8825 38.9462 37.895 67.2791 37.89 67.3082C37.8928 69.0204 37.2669 70.5866 36.1276 71.7186C33.1859 74.6392 32.2944 78.2431 34.0943 81.7139L32.9212 82.1055C29.9679 83.0899 27.8568 85.725 27.5436 88.8089C27.4658 89.1209 27.5077 95.131 27.4988 95.6278C27.4988 96.2752 28.0234 96.7998 28.6708 96.7998C29.3182 96.7998 29.8428 96.2752 29.8428 95.6278V89.6305C29.8359 87.2492 31.3942 85.0736 33.6627 84.329L35.4807 83.7223C45.3533 94.4672 74.6118 94.4735 84.5089 83.7388L86.3259 84.3395C88.5849 85.0843 90.1279 87.1893 90.1602 89.5683C90.1613 89.5947 90.161 89.6199 90.161 89.6461V95.6276C90.2129 97.1761 92.4511 97.1812 92.505 95.6276V89.6461C92.5048 89.5949 92.5047 89.5452 92.5029 89.4939Z" fill="#4CA4FD"/>
<path d="M76.7604 53.3652V44.7886C75.8396 22.5562 44.1607 22.5612 43.2428 44.7887C43.2428 44.7886 43.2428 53.3652 43.2428 53.3652C43.2428 56.1548 43.9426 58.9173 45.2661 61.3542C45.5752 61.923 46.2862 62.1335 46.8555 61.8247C47.4243 61.5157 47.6348 60.8042 47.326 60.2354C46.1882 58.1409 45.5868 55.7652 45.5868 53.3652V44.7886C45.5868 43.8732 45.6735 42.9778 45.8374 42.1094C53.3208 34.4949 66.5463 34.4143 74.13 41.9239C74.3175 42.8501 74.4165 43.808 74.4165 44.7887V53.3653C74.4415 66.2553 58.4835 72.6788 49.6015 63.3465C49.1532 62.8797 48.4114 62.8645 47.9445 63.3129C47.4777 63.761 47.4624 64.503 47.9108 64.9699C58.24 75.8209 76.7909 68.3469 76.7604 53.3652ZM60.0804 33.9631C55.4841 33.9631 51.1004 35.3167 47.3782 37.8355C52.7298 28.0113 67.0579 27.921 72.5336 37.6721C68.8623 35.2593 64.5661 33.9631 60.0804 33.9631Z" fill="#4CA4FD"/>
<path d="M53.1788 43.889C51.2839 43.9745 50.1231 45.197 49.8124 45.5697C48.8611 46.7937 50.5761 48.2285 51.6129 47.0706C51.7235 46.9378 52.3239 46.2738 53.2845 46.2305C54.3838 46.1771 55.0904 46.9809 55.167 47.0725C56.2021 48.2271 57.9197 46.7926 56.9643 45.5678C56.7153 45.2704 55.3598 43.7914 53.1788 43.889Z" fill="#4CA4FD"/>
<path d="M63.6595 47.2202C64.1539 47.6329 64.894 47.5696 65.3101 47.0705C65.4207 46.9377 66.0211 46.2737 66.9818 46.2305C68.0801 46.177 68.7878 46.9808 68.8644 47.0724C69.2799 47.5686 70.019 47.6345 70.5153 47.2188C71.0116 46.8033 71.0772 46.0642 70.6617 45.5679C70.4126 45.2705 69.0567 43.7915 66.8762 43.8891C64.9812 43.9746 63.8203 45.1971 63.5096 45.5698C63.0954 46.0667 63.1622 46.8058 63.6595 47.2202Z" fill="#4CA4FD"/>
<path d="M56.3537 57.4064C55.9513 56.8994 55.214 56.8147 54.7071 57.2172C54.2002 57.6197 54.1155 58.3569 54.5179 58.8638C54.869 59.3062 56.7837 61.5125 60.0017 61.5125C63.2197 61.5125 65.1344 59.3062 65.4855 58.8638C65.8879 58.3569 65.8032 57.6197 65.2963 57.2172C64.7897 56.815 64.0522 56.8995 63.6497 57.4064C61.732 59.7439 58.2561 59.7287 56.3537 57.4064Z" fill="#4CA4FD"/>
<path d="M59.8743 78.7603C58.497 79.2096 55.7117 79.8259 52.5339 78.9063C50.6734 78.3678 48.9326 77.3722 47.4998 76.0269C47.0277 75.5836 46.286 75.6072 45.8431 76.0791C45.4001 76.5512 45.4234 77.2928 45.8953 77.7359C47.5972 79.3335 49.6674 80.5167 51.8823 81.1577C53.318 81.5733 54.6852 81.7258 55.918 81.7258C57.9319 81.7258 59.588 81.3192 60.6012 80.9887C62.0572 80.4585 61.3684 78.3298 59.8743 78.7603Z" fill="#4CA4FD"/>
</g>
<defs>
<clipPath id="clip0_306_614">
<rect width="80" height="80" fill="white" transform="translate(19.9999 16.7999)"/>
</clipPath>
</defs>
</svg>
