<svg width="120" height="120" viewBox="0 0 120 120" fill="none" xmlns="http://www.w3.org/2000/svg">
<circle cx="60" cy="60" r="60" fill="#E42281" fill-opacity="0.1"/>
<path d="M100.393 41.7046C99.9984 40.9886 99.3062 40.5645 98.5727 40.512C98.5492 40.4608 98.2909 39.9394 97.5709 38.4809C97.0364 37.3992 95.7634 36.9757 94.7319 37.536L93.7154 38.0892L92.671 36.191C92.1432 35.2325 91.0605 34.7501 90.0359 35.0192L74.76 39.0354C70.5138 40.1521 66.7343 42.4756 63.75 45.7895C63.2 45.6494 62.6284 45.8427 62.2564 46.307C61.5939 47.1351 60.9765 48.0158 60.4222 48.9256C60.2875 49.1461 60.1651 49.3737 60.0545 49.6072C56.8737 44.2506 51.8965 40.523 46.2395 39.0354L30.963 35.0192C29.939 34.7501 28.8557 35.2325 28.3285 36.191L27.2841 38.0892L26.2669 37.536C25.2368 36.9757 23.9631 37.3992 23.4285 38.4809C23.4285 38.4971 22.5189 40.3109 22.4268 40.512C21.6939 40.5645 21.0011 40.988 20.6075 41.7046C19.3703 43.9471 20.1143 46.5554 22.0121 47.7979L32.9961 54.991C33.5517 55.3548 34.284 55.1778 34.6307 54.5942C34.9774 54.0112 34.8081 53.2427 34.2525 52.8789L23.2685 45.6857C22.4052 45.1202 22.1228 43.9588 22.6178 43.0301L59.3135 62.9916V69.2918C59.2666 69.2613 40.8835 57.2219 38.9492 55.9547C38.3936 55.5909 37.6613 55.7686 37.3146 56.3516C36.9679 56.9352 37.1372 57.7031 37.6928 58.0669L50.3478 66.3547L38.2546 72.9331C36.6379 73.8125 35.499 75.4629 35.2073 77.3487C34.9904 78.754 34.3186 80.0504 33.3144 81.0063L31.5019 82.4109C28.8328 84.479 27.9102 88.2727 29.3074 91.4302C29.6739 92.2577 30.6466 92.5547 31.3777 92.0762L59.3135 73.7807V75.0174C59.3135 75.7054 59.845 76.2625 60.5001 76.2625C61.1557 76.2625 61.6866 75.7054 61.6866 75.0174C61.6866 66.6031 61.6866 61.7581 61.6866 52.9612C61.6866 51.9878 61.9406 51.0559 62.422 50.2667C62.4572 50.2077 62.4937 50.1493 62.5295 50.091V81.1509C62.2582 81.0426 61.9579 81.0426 61.6866 81.1509V80.8273C61.6866 80.1399 61.1557 79.5822 60.5001 79.5822C59.845 79.5822 59.3135 80.1399 59.3135 80.8273V83.2566C59.3135 84.4271 60.5909 85.0879 61.4752 84.3824L62.108 83.8778L62.7409 84.3824C63.627 85.0892 64.9026 84.4252 64.9026 83.2566V75.8864L89.6225 92.0762C90.3572 92.5573 91.3281 92.2538 91.6927 91.4302C93.09 88.2721 92.1673 84.479 89.4982 82.4109L87.6857 81.0063C86.6815 80.0504 86.0097 78.7534 85.7928 77.3487C85.5011 75.4629 84.3622 73.8125 82.7462 72.9331L70.6523 66.3547L98.9874 47.7979C100.879 46.5592 101.633 43.9536 100.393 41.7046ZM30.3864 37.4349L45.6623 41.451C51.6765 43.0321 56.7625 47.4976 59.3129 53.421V53.7719C54.7565 47.9652 48.5551 43.833 41.5249 41.9847C40.889 41.8174 40.2445 42.2227 40.0856 42.8894C39.9262 43.5567 40.3124 44.2324 40.9477 44.3997C46.8433 45.9497 52.1116 49.2272 56.1952 53.8166L29.3933 39.237L30.3864 37.4349ZM25.4123 39.8758C28.5343 41.5742 55.5432 56.2666 59.3135 58.3172V60.1868L24.6843 41.3498L25.4123 39.8758ZM31.123 89.3077C30.7702 87.4867 31.4401 85.5542 32.9109 84.4141C34.876 82.8915 34.7945 82.9582 34.8538 82.9025C36.285 81.564 37.2423 79.7333 37.5494 77.7476C37.7212 76.636 38.393 75.6626 39.3453 75.1445L52.6863 67.8871L58.2586 71.5362L31.123 89.3077ZM75.3372 41.451L90.6162 37.4361L91.6068 39.2364L82.4545 44.2149C81.873 44.5314 81.6455 45.283 81.9471 45.8932C82.2487 46.5035 82.9649 46.7421 83.5465 46.4257L95.5872 39.8758L96.3152 41.3492L64.9019 58.4372V56.5675L78.631 49.0994C79.2132 48.783 79.44 48.0313 79.1384 47.4211C78.8368 46.8102 78.1206 46.5722 77.5391 46.8887L64.9019 53.7628V53.7116C69.0097 49.1435 74.2378 45.9283 80.0512 44.3997C80.6871 44.2324 81.0733 43.5567 80.9139 42.8894C80.7544 42.2221 80.1105 41.8174 79.4746 41.9847C74.0079 43.4218 69.022 46.246 64.9019 50.2161V48.1617C67.6575 44.8407 71.2567 42.5236 75.3372 41.451ZM83.4501 77.7476C83.7566 79.7333 84.7144 81.564 86.1457 82.9025C86.205 82.9582 86.0635 82.8454 88.088 84.4141C89.5594 85.5542 90.2287 87.4867 89.8764 89.3077L64.9019 72.9519V66.0318C90.5247 79.9693 77.4655 72.8663 81.6536 75.1438C82.6065 75.6626 83.2783 76.636 83.4501 77.7476ZM97.731 45.6857L68.2038 65.0233C66.9493 64.3411 66.1181 63.8891 64.9019 63.227V61.2426C67.4171 59.8742 96.859 43.8589 98.3817 43.0301C98.8767 43.9588 98.5943 45.1202 97.731 45.6857Z" fill="#E42281"/>
</svg>
