<svg width="120" height="120" viewBox="0 0 120 120" fill="none" xmlns="http://www.w3.org/2000/svg">
<g filter="url(#filter0_d)">
<circle cx="60" cy="50" r="45" fill="white"/>
<circle cx="60" cy="50" r="44.5" stroke="white"/>
</g>
<path d="M70.201 47.2287C71.7762 48.1382 72.5638 48.5929 72.8281 49.1865C73.0586 49.7043 73.0586 50.2957 72.8281 50.8135C72.5638 51.4071 71.7762 51.8618 70.201 52.7713L57.301 60.2191C55.7258 61.1285 54.9382 61.5832 54.2919 61.5153C53.7282 61.4561 53.2161 61.1604 52.8829 60.7018C52.501 60.1761 52.501 59.2667 52.501 57.4478L52.501 42.5522C52.501 40.7333 52.501 39.8239 52.8829 39.2981C53.2161 38.8396 53.7282 38.5439 54.2919 38.4847C54.9382 38.4167 55.7258 38.8715 57.301 39.7809L70.201 47.2287Z" fill="#E42281"/>
<defs>
<filter id="filter0_d" x="0" y="0" width="120" height="120" filterUnits="userSpaceOnUse" color-interpolation-filters="sRGB">
<feFlood flood-opacity="0" result="BackgroundImageFix"/>
<feColorMatrix in="SourceAlpha" type="matrix" values="0 0 0 0 0 0 0 0 0 0 0 0 0 0 0 0 0 0 127 0"/>
<feOffset dy="10"/>
<feGaussianBlur stdDeviation="7.5"/>
<feColorMatrix type="matrix" values="0 0 0 0 0 0 0 0 0 0 0 0 0 0 0 0 0 0 0.46 0"/>
<feBlend mode="normal" in2="BackgroundImageFix" result="effect1_dropShadow"/>
<feBlend mode="normal" in="SourceGraphic" in2="effect1_dropShadow" result="shape"/>
</filter>
</defs>
</svg>
