<svg width="19" height="19" viewBox="0 0 19 19" fill="none" xmlns="http://www.w3.org/2000/svg">
<g clip-path="url(#clip0_306_180)">
<path d="M15.0664 12.1719C13.9664 12.1719 12.9972 12.6845 12.3883 13.464L7.12463 10.9106C7.21202 10.6284 7.27344 10.3359 7.27344 10.0273C7.27344 9.60877 7.18285 9.21084 7.02636 8.84483L12.5351 5.70439C13.1481 6.386 14.0492 6.82812 15.0664 6.82812C16.9081 6.82812 18.4062 5.40883 18.4062 3.66406C18.4062 1.91929 16.9081 0.5 15.0664 0.5C13.2247 0.5 11.7266 1.91929 11.7266 3.66406C11.7266 4.06614 11.814 4.44755 11.9589 4.80165L6.43384 7.9513C5.82131 7.28994 4.93321 6.86328 3.93359 6.86328C2.09189 6.86328 0.59375 8.28257 0.59375 10.0273C0.59375 11.7721 2.09189 13.1914 3.93359 13.1914C5.0517 13.1914 6.03736 12.6637 6.64388 11.8623L11.8903 14.4074C11.7936 14.7029 11.7266 15.0107 11.7266 15.3359C11.7266 17.0807 13.2247 18.5 15.0664 18.5C16.9081 18.5 18.4062 17.0807 18.4062 15.3359C18.4062 13.5912 16.9081 12.1719 15.0664 12.1719Z" fill="black"/>
</g>
<defs>
<clipPath id="clip0_306_180">
<rect width="19" height="18" fill="white" transform="translate(0 0.5)"/>
</clipPath>
</defs>
</svg>
