<svg width="66" height="66" viewBox="0 0 66 66" fill="none" xmlns="http://www.w3.org/2000/svg">
<circle cx="33" cy="33" r="33" fill="white"/>
<circle cx="33" cy="34" r="23" fill="#4CA4FD"/>
<path d="M44.4849 27.8166C44.1968 26.7152 43.3524 25.847 42.2815 25.5504C40.3252 25 32.4997 25 32.4997 25C32.4997 25 24.6745 25 22.7182 25.5296C21.6679 25.8258 20.8029 26.7154 20.5148 27.8166C20 29.8282 20 34 20 34C20 34 20 38.1928 20.5148 40.1834C20.8032 41.2846 21.6473 42.1528 22.7184 42.4494C24.6951 43 32.5 43 32.5 43C32.5 43 40.3252 43 42.2815 42.4704C43.3526 42.174 44.1968 41.3058 44.4852 40.2046C44.9999 38.1928 44.9999 34.0212 44.9999 34.0212C44.9999 34.0212 45.0205 29.8282 44.4849 27.8166ZM30.0083 37.8541V30.1459L36.5155 34L30.0083 37.8541Z" fill="white"/>
</svg>
