<svg width="68" height="68" viewBox="0 0 68 68" fill="none" xmlns="http://www.w3.org/2000/svg">
<circle cx="34" cy="34" r="34" fill="#27C967"/>
<path d="M30.3022 18.3158C30.3022 21.8246 33.5771 24.6316 33.5771 24.6316C33.5771 24.6316 36.852 21.8246 36.852 18.3158C36.852 14.807 33.5771 12 33.5771 12C33.5771 12 30.3022 14.807 30.3022 18.3158Z" fill="white"/>
<path d="M32.4078 25.567C34.0452 28.6079 32.6417 32.8185 32.6417 32.8185C32.6417 32.8185 28.4312 31.6489 26.7938 28.6079C25.1563 25.567 26.5599 21.3564 26.5599 21.3564C26.5599 21.3564 30.7704 22.526 32.4078 25.567Z" fill="white"/>
<path d="M32.4078 35.1578C34.0452 38.1987 32.6417 42.4093 32.6417 42.4093C32.6417 42.4093 28.4312 41.2397 26.7938 38.1987C25.1563 35.1578 26.5599 30.9473 26.5599 30.9473C26.5599 30.9473 30.7704 32.1169 32.4078 35.1578Z" fill="white"/>
<path d="M32.4078 44.7486C34.0452 47.7896 32.6417 52.0001 32.6417 52.0001C32.6417 52.0001 28.4312 50.8305 26.7938 47.7896C25.1563 44.7486 26.5599 40.5381 26.5599 40.5381C26.5599 40.5381 30.7704 41.7077 32.4078 44.7486Z" fill="white"/>
<path d="M34.7471 25.567C33.1096 28.6079 34.5132 32.8185 34.5132 32.8185C34.5132 32.8185 38.7237 31.6489 40.3611 28.6079C41.9985 25.567 40.595 21.3564 40.595 21.3564C40.595 21.3564 36.3845 22.526 34.7471 25.567Z" fill="white"/>
<path d="M34.7471 35.1578C33.1096 38.1987 34.5132 42.4093 34.5132 42.4093C34.5132 42.4093 38.7237 41.2397 40.3611 38.1987C41.9985 35.1578 40.595 30.9473 40.595 30.9473C40.595 30.9473 36.3845 32.1169 34.7471 35.1578Z" fill="white"/>
<path d="M34.7471 44.7486C33.1096 47.7896 34.5132 52.0001 34.5132 52.0001C34.5132 52.0001 38.7237 50.8305 40.3611 47.7896C41.9985 44.7486 40.595 40.5381 40.595 40.5381C40.595 40.5381 36.3845 41.7077 34.7471 44.7486Z" fill="white"/>
</svg>
