<svg width="84" height="84" viewBox="0 0 84 84" fill="none" xmlns="http://www.w3.org/2000/svg">
<circle cx="42" cy="42" r="42" fill="white"/>
<circle cx="42" cy="42" r="32" fill="#E42281"/>
<path d="M59.9044 34.2901C59.8224 32.4304 59.5217 31.1519 59.0909 30.0441C58.6464 28.8681 57.9627 27.8153 57.0669 26.94C56.1917 26.0512 55.1319 25.3605 53.9696 24.923C52.8553 24.4922 51.5835 24.1915 49.7238 24.1095C47.8502 24.0206 47.2554 24 42.5035 24C37.7516 24 37.1568 24.0206 35.2901 24.1026C33.4304 24.1846 32.1519 24.4856 31.0443 24.9161C29.8681 25.3605 28.8153 26.0442 27.94 26.94C27.0512 27.8153 26.3608 28.875 25.923 30.0374C25.4922 31.1519 25.1915 32.4235 25.1095 34.2832C25.0206 36.1568 25 36.7516 25 41.5035C25 46.2554 25.0206 46.8502 25.1026 48.7168C25.1846 50.5765 25.4856 51.855 25.9164 52.9629C26.3608 54.1388 27.0512 55.1917 27.94 56.0669C28.8153 56.9558 29.875 57.6464 31.0374 58.0839C32.1519 58.5147 33.4235 58.8154 35.2835 58.8974C37.1498 58.9797 37.7449 59 42.4968 59C47.2487 59 47.8435 58.9797 49.7101 58.8974C51.5698 58.8154 52.8484 58.5147 53.9559 58.0839C56.3081 57.1745 58.1678 55.3148 59.0772 52.9629C59.5078 51.8484 59.8088 50.5765 59.8908 48.7168C59.9728 46.8502 59.9933 46.2554 59.9933 41.5035C59.9933 36.7516 59.9864 36.1568 59.9044 34.2901ZM56.7526 48.5801C56.6772 50.2894 56.3901 51.2124 56.1508 51.8278C55.5627 53.3526 54.3526 54.5627 52.8278 55.1508C52.2124 55.3901 51.2827 55.6772 49.5801 55.7523C47.734 55.8345 47.1803 55.8548 42.5104 55.8548C37.8405 55.8548 37.2799 55.8345 35.4405 55.7523C33.7312 55.6772 32.8081 55.3901 32.1928 55.1508C31.434 54.8704 30.7433 54.426 30.1827 53.8448C29.6016 53.2772 29.1571 52.5935 28.8767 51.8347C28.6374 51.2194 28.3503 50.2894 28.2752 48.587C28.193 46.7409 28.1727 46.187 28.1727 41.5171C28.1727 36.8472 28.193 36.2866 28.2752 34.4474C28.3503 32.7381 28.6374 31.8151 28.8767 31.1997C29.1571 30.4407 29.6016 29.7503 30.1897 29.1894C30.7569 28.6082 31.4407 28.1638 32.1997 27.8836C32.8151 27.6443 33.7451 27.3572 35.4474 27.2819C37.2935 27.1999 37.8474 27.1793 42.5171 27.1793C47.194 27.1793 47.7476 27.1999 49.587 27.2819C51.2963 27.3572 52.2194 27.6443 52.8347 27.8836C53.5935 28.1638 54.2842 28.6082 54.8448 29.1894C55.426 29.7569 55.8704 30.4407 56.1508 31.1997C56.3901 31.8151 56.6772 32.7448 56.7526 34.4474C56.8345 36.2935 56.8551 36.8472 56.8551 41.5171C56.8551 46.187 56.8345 46.734 56.7526 48.5801Z" fill="white"/>
<path d="M42.5035 32.5122C37.5398 32.5122 33.5125 36.5393 33.5125 41.5032C33.5125 46.4672 37.5398 50.4943 42.5035 50.4943C47.4675 50.4943 51.4945 46.4672 51.4945 41.5032C51.4945 36.5393 47.4675 32.5122 42.5035 32.5122ZM42.5035 47.3355C39.2833 47.3355 36.6712 44.7237 36.6712 41.5032C36.6712 38.2828 39.2833 35.671 42.5035 35.671C45.724 35.671 48.3358 38.2828 48.3358 41.5032C48.3358 44.7237 45.724 47.3355 42.5035 47.3355Z" fill="white"/>
<path d="M53.9492 32.1571C53.9492 33.3162 53.0094 34.2561 51.85 34.2561C50.6908 34.2561 49.751 33.3162 49.751 32.1571C49.751 30.9977 50.6908 30.0581 51.85 30.0581C53.0094 30.0581 53.9492 30.9977 53.9492 32.1571Z" fill="white"/>
</svg>
