<svg width="43" height="43" viewBox="0 0 43 43" fill="none" xmlns="http://www.w3.org/2000/svg">
<circle cx="21.5" cy="21.5" r="21.5" fill="white"/>
<circle cx="21.5" cy="21.5" r="16.5" fill="#E42281"/>
<path d="M28.9965 27.9998V27.9992H29V22.8647C29 20.3529 28.4593 18.418 25.5228 18.418C24.1111 18.418 23.1638 19.1926 22.777 19.9271H22.7362V18.6525H19.952V27.9992H22.8511V23.3711C22.8511 22.1525 23.0821 20.9741 24.5912 20.9741C26.0781 20.9741 26.1003 22.3648 26.1003 23.4492V27.9998H28.9965Z" fill="white"/>
<path d="M15.231 18.6533H18.1336V28.0001H15.231V18.6533Z" fill="white"/>
<path d="M16.6812 14C15.7531 14 15 14.7531 15 15.6812C15 16.6093 15.7531 17.3781 16.6812 17.3781C17.6093 17.3781 18.3623 16.6093 18.3623 15.6812C18.3618 14.7531 17.6087 14 16.6812 14V14Z" fill="white"/>
</svg>
