<svg width="456" height="456" viewBox="0 0 456 456" fill="none" xmlns="http://www.w3.org/2000/svg">
<path opacity="0.5" d="M246.397 -1.93619e-05L246.397 209.064C362.129 209.064 455.461 115.265 455.461 0L246.397 -1.93619e-05Z" fill="#93C4F7"/>
<path opacity="0.8" d="M-0.000106812 246.398L-0.000126173 455.461C115.265 455.461 209.063 362.129 209.063 246.398L-0.000106812 246.398Z" fill="#93C4F7"/>
<path d="M-0.000109189 25.6663C-0.000108367 16.7997 -9.26764e-05 12.1331 1.86655 8.86651C3.26652 6.06656 6.06648 3.2666 8.86644 1.86662C12.1331 -1.82382e-05 16.7997 -1.78061e-05 25.6662 -1.69849e-05L183.397 -2.37702e-06C192.264 -1.55587e-06 196.93 -1.12368e-06 200.197 1.86664C202.997 3.26662 205.797 6.06657 207.197 8.86653C209.063 12.1332 209.063 16.7997 209.063 25.6663L209.063 209.064L25.6662 209.064C16.7996 209.064 12.133 209.064 8.86642 207.197C6.06646 205.797 3.26651 202.997 1.86653 200.197C-0.000109791 196.93 -0.000124618 192.264 -0.000123796 183.397L-0.000109189 25.6663Z" fill="#93C4F7"/>
</svg>
