<svg width="202" height="202" viewBox="0 0 202 202" fill="none" xmlns="http://www.w3.org/2000/svg">
<path opacity="0.5" d="M54.4967 46.2392L100.736 92.4782C126.332 66.8817 126.229 25.4936 100.736 0.000244141L54.4967 46.2392Z" fill="white" fill-opacity="0.35"/>
<path opacity="0.8" d="M54.4964 155.231L100.735 201.47C126.229 175.977 126.332 134.589 100.735 108.992L54.4964 155.231Z" fill="white" fill-opacity="0.35"/>
<path d="M5.67699 106.412C3.71596 104.451 2.68384 103.419 2.3742 102.284C2.06457 101.355 2.06456 100.116 2.3742 99.1872C2.68384 98.0518 3.71596 97.0197 5.67699 95.0587L40.5627 60.173C42.5237 58.212 43.5558 57.1799 44.6912 56.8702C45.6201 56.5606 46.8586 56.5606 47.7875 56.8702C48.9228 57.1799 49.955 58.212 51.916 60.173L92.4783 100.735L51.916 141.298C49.955 143.259 48.9228 144.291 47.7875 144.6C46.8586 144.91 45.6201 144.91 44.6911 144.6C43.5558 144.291 42.5237 143.259 40.5627 141.298L5.67699 106.412Z" fill="white"/>
</svg>
