<svg width="456" height="456" viewBox="0 0 456 456" fill="none" xmlns="http://www.w3.org/2000/svg">
<path opacity="0.5" d="M246.398 -1.93619e-05L246.398 209.064C362.129 209.064 455.461 115.265 455.461 0L246.398 -1.93619e-05Z" fill="#FFDC7C"/>
<path opacity="0.8" d="M-8.7738e-05 246.398L-0.0001071 455.461C115.265 455.461 209.063 362.129 209.063 246.398L-8.7738e-05 246.398Z" fill="#FFDC7C"/>
<path d="M-7.10416e-05 25.6663C-7.02204e-05 16.7997 -5.45294e-05 12.1331 1.86658 8.86651C3.26656 6.06656 6.06652 3.2666 8.86648 1.86662C12.1331 -1.82382e-05 16.7997 -1.78061e-05 25.6662 -1.69849e-05L183.397 -2.37702e-06C192.264 -1.55587e-06 196.93 -1.12368e-06 200.197 1.86664C202.997 3.26662 205.797 6.06657 207.197 8.86653C209.064 12.1332 209.064 16.7997 209.064 25.6663L209.063 209.064L25.6662 209.064C16.7997 209.064 12.1331 209.064 8.86646 207.197C6.0665 205.797 3.26654 202.997 1.86657 200.197C-7.1644e-05 196.93 -8.64706e-05 192.264 -8.56495e-05 183.397L-7.10416e-05 25.6663Z" fill="#FFDC7C"/>
</svg>
