<svg width="72" height="72" viewBox="0 0 72 72" fill="none" xmlns="http://www.w3.org/2000/svg">
<path opacity="0.5" d="M0.538817 32.8018L33.3406 32.8018C33.3406 14.6436 18.6237 8.84374e-07 0.538818 0L0.538817 32.8018Z" fill="white" fill-opacity="0.35"/>
<path opacity="0.8" d="M39.1982 71.4612L72 71.4612C72 53.3763 57.3564 38.6594 39.1982 38.6594L39.1982 71.4612Z" fill="white" fill-opacity="0.35"/>
<path d="M4.56582 71.4612C3.17467 71.4612 2.44249 71.4612 1.92996 71.1683C1.49065 70.9487 1.05134 70.5093 0.83169 70.07C0.538817 69.5575 0.538817 68.8253 0.538817 67.4342L0.538818 42.6864C0.538818 41.2953 0.538818 40.5631 0.831691 40.0506C1.05135 39.6113 1.49065 39.172 1.92996 38.9523C2.44249 38.6594 3.17467 38.6594 4.56582 38.6594L33.3406 38.6594L33.3406 67.4342C33.3406 68.8253 33.3406 69.5575 33.0477 70.07C32.828 70.5093 32.3887 70.9487 31.9494 71.1683C31.4369 71.4612 30.7047 71.4612 29.3136 71.4612L4.56582 71.4612Z" fill="white"/>
</svg>
