<svg width="48" height="58" viewBox="0 0 48 58" fill="none" xmlns="http://www.w3.org/2000/svg">
<path d="M43.3872 22.9117C41.3427 22.9117 39.6899 24.5761 39.6899 26.6321L39.6899 28.4923C39.6899 28.8321 39.4134 29.1143 39.0736 29.1143C38.7338 29.1143 38.4574 28.8378 38.4574 28.4923L38.4574 24.1557C38.4574 22.0997 36.8017 20.4382 34.7601 20.4353C32.7156 20.4353 31.0627 22.0997 31.0627 24.1557V28.4923C31.0627 28.8321 30.7863 29.1143 30.4465 29.1143C30.1067 29.1143 29.8303 28.8378 29.8303 28.4923L29.8303 21.6735C29.8303 19.6175 28.1745 17.956 26.1329 17.9531C24.0885 17.9531 22.4356 19.6175 22.4356 21.6735L22.4356 28.4923C22.4356 28.8321 22.1592 29.1143 21.8194 29.1143C21.4796 29.1143 21.2031 28.8378 21.2031 28.4923L21.2031 4.32133C21.2031 2.26533 19.5474 0.603834 17.5058 0.600954C15.4613 0.600954 13.8085 2.26533 13.8085 4.32133L13.8085 33.4106C12.1988 31.2077 9.11767 27.8732 5.18133 27.8703C1.48398 27.8703 0.254411 29.1978 0.25153 30.3467C0.251531 33.4739 3.92584 32.2069 7.64622 42.7345C11.3637 53.265 16.2244 57.5613 22.4327 57.6132L31.0598 57.6132C31.1059 57.6132 31.0138 57.6132 31.0598 57.6132C39.8309 57.6132 47.0817 52.8734 47.0788 44.0246C47.0788 44.0073 47.0788 43.9958 47.0788 43.9785L47.0788 26.6263C47.0845 24.5761 45.4288 22.9146 43.3872 22.9117Z" fill="white"/>
</svg>
