<svg width="48" height="48" viewBox="0 0 48 48" fill="none" xmlns="http://www.w3.org/2000/svg">
<path d="M17.4884 26.4815C17.4884 25.8802 17.0007 25.3931 16.3989 25.3931H12.597C11.9959 25.3931 11.5081 25.8802 11.5081 26.4815V30.2829C11.5081 30.885 11.9959 31.3723 12.597 31.3723H16.3989C17.0007 31.3723 17.4884 30.885 17.4884 30.2829V26.4815Z" fill="white"/>
<path d="M26.9898 26.4815C26.9898 25.8802 26.502 25.3931 25.9014 25.3931H22.099C21.4979 25.3931 21.0101 25.8802 21.0101 26.4815V30.2829C21.0101 30.885 21.4979 31.3723 22.099 31.3723H25.9014C26.502 31.3723 26.9898 30.885 26.9898 30.2829V26.4815Z" fill="white"/>
<path d="M36.492 26.4815C36.492 25.8802 36.0042 25.3931 35.4031 25.3931H31.6012C30.9994 25.3931 30.5117 25.8802 30.5117 26.4815V30.2829C30.5117 30.885 30.9994 31.3723 31.6012 31.3723H35.4031C36.0042 31.3723 36.492 30.885 36.492 30.2829V26.4815Z" fill="white"/>
<path d="M17.4884 35.984C17.4884 35.3818 17.0007 34.895 16.3989 34.895H12.597C11.9959 34.895 11.5081 35.3818 11.5081 35.984V39.7848C11.5081 40.3865 11.9959 40.8737 12.597 40.8737H16.3989C17.0007 40.8737 17.4884 40.3864 17.4884 39.7848V35.984Z" fill="white"/>
<path d="M26.9898 35.984C26.9898 35.3818 26.502 34.895 25.9014 34.895H22.099C21.4979 34.895 21.0101 35.3818 21.0101 35.984V39.7848C21.0101 40.3865 21.4979 40.8737 22.099 40.8737H25.9014C26.502 40.8737 26.9898 40.3864 26.9898 39.7848V35.984Z" fill="white"/>
<path d="M36.492 35.984C36.492 35.3818 36.0042 34.895 35.4036 34.895H31.6012C30.9994 34.895 30.5117 35.3818 30.5117 35.984V39.7848C30.5117 40.3865 30.9994 40.8737 31.6012 40.8737H35.4036C36.0042 40.8737 36.492 40.3864 36.492 39.7848V35.984Z" fill="white"/>
<path d="M43.2902 5.34458V11.151C43.2902 13.7754 41.1611 15.8903 38.5371 15.8903H35.5387C32.9145 15.8903 30.7572 13.7754 30.7572 11.151V5.32373H17.2427V11.151C17.2427 13.7754 15.0856 15.8903 12.4617 15.8903H9.46277C6.83883 15.8903 4.70989 13.7754 4.70989 11.151V5.34458C2.41654 5.4137 0.532043 7.31137 0.532043 9.64386V43.6721C0.532043 46.0484 2.45813 48 4.83447 48H43.1655C45.5383 48 47.4679 46.0444 47.4679 43.6721V9.64386C47.4679 7.31137 45.5835 5.4137 43.2902 5.34458ZM41.8975 41.553C41.8975 42.58 41.0649 43.4131 40.0375 43.4131H7.88054C6.85319 43.4131 6.02053 42.58 6.02053 41.553V23.9763C6.02053 22.9489 6.85309 22.1157 7.88054 22.1157H40.0374C41.0648 22.1157 41.8974 22.9489 41.8974 23.9763L41.8975 41.553Z" fill="white"/>
<path d="M9.45238 12.7775H12.4182C13.3184 12.7775 14.0483 12.0487 14.0483 11.1485V1.62962C14.0483 0.729314 13.3184 0 12.4182 0H9.45238C8.55207 0 7.82227 0.729314 7.82227 1.62962V11.1485C7.82227 12.0487 8.55207 12.7775 9.45238 12.7775Z" fill="white"/>
<path d="M35.5006 12.7775H38.4664C39.366 12.7775 40.0959 12.0487 40.0959 11.1485V1.62962C40.096 0.729314 39.3661 0 38.4664 0H35.5006C34.6004 0 33.8705 0.729314 33.8705 1.62962V11.1485C33.8705 12.0487 34.6004 12.7775 35.5006 12.7775Z" fill="white"/>
</svg>
