<svg width="54" height="54" viewBox="0 0 54 54" fill="none" xmlns="http://www.w3.org/2000/svg">
<path d="M53.7358 28.7892L50.553 23.7688L52.4409 18.1346C52.6965 17.3656 52.378 16.5212 51.6761 16.1189L46.5259 13.1499L45.5788 7.28304C45.4468 6.48264 44.7721 5.88548 43.9633 5.85195L38.0231 5.61937L34.459 0.863049C33.9729 0.213507 33.0929 -0.00230843 32.3658 0.347606L26.9998 2.89968L21.6316 0.345511C20.9025 -0.000213116 20.0266 0.215603 19.5384 0.863049L15.9743 5.61937L10.0342 5.85195C9.22747 5.88338 8.55069 6.48054 8.42078 7.28094L7.4737 13.1478L2.32346 16.1168C1.62154 16.5191 1.30096 17.3635 1.55658 18.1325L3.44445 23.7667L0.263786 28.7892C-0.169941 29.4743 -0.0588899 30.369 0.525698 30.9306L4.81477 35.0436L4.33285 40.9649C4.2679 41.7758 4.77915 42.5155 5.55651 42.7418L11.2662 44.3866L13.5899 49.8574C13.9084 50.6012 14.7067 51.0329 15.4987 50.861L21.3236 49.6667L25.9207 53.432C26.2329 53.6855 26.6163 53.8175 26.9998 53.8175C27.3832 53.8175 27.7646 53.6855 28.0789 53.432L32.6759 49.6667L38.5009 50.861C39.2908 51.0287 40.0933 50.6033 40.4097 49.8574L42.7334 44.3866L48.4431 42.7418C49.2204 42.5176 49.7317 41.7758 49.6667 40.9649L49.1848 35.0436L53.4739 30.9306C54.0584 30.369 54.1695 29.4743 53.7358 28.7892ZM39.3138 20.5945L27.3895 38.459C26.939 39.1253 26.2413 39.5716 25.5477 39.5716C24.8563 39.5716 24.0831 39.1839 23.5907 38.6895L14.8366 29.7949C14.2394 29.1873 14.2394 28.2025 14.8366 27.5949L16.9968 25.3948C17.594 24.7955 18.5641 24.7955 19.1571 25.3948L24.8542 31.182L34.2495 17.1058C34.721 16.3955 35.6785 16.2153 36.3741 16.6951L38.9074 18.4363C39.6051 18.9182 39.7853 19.8883 39.3138 20.5945Z" fill="white"/>
</svg>
