<svg width="455" height="456" viewBox="0 0 455 456" fill="none" xmlns="http://www.w3.org/2000/svg">
<path opacity="0.5" d="M455.461 246.397L246.397 246.397C246.397 362.129 340.196 455.461 455.461 455.461L455.461 246.397Z" fill="#FF59AA"/>
<path opacity="0.8" d="M209.063 -0.000350952L-0.000114865 -0.000342899C-0.000110425 115.265 93.3319 209.063 209.063 209.063L209.063 -0.000350952Z" fill="#FF59AA"/>
<path d="M429.795 -0.000349963C438.661 -0.000350305 443.328 -0.000335226 446.594 1.8663C449.394 3.26628 452.194 6.06624 453.594 8.8662C455.461 12.1328 455.461 16.7994 455.461 25.6659L455.461 183.397C455.461 192.263 455.461 196.93 453.594 200.197C452.194 202.997 449.394 205.797 446.594 207.197C443.328 209.063 438.661 209.063 429.795 209.063L246.397 209.063L246.397 25.6659C246.397 16.7994 246.397 12.1328 248.264 8.8662C249.664 6.06625 252.464 3.26629 255.264 1.86631C258.531 -0.000328107 263.197 -0.000343546 272.064 -0.000343887L429.795 -0.000349963Z" fill="#FF59AA"/>
</svg>
