<svg width="455" height="456" viewBox="0 0 455 456" fill="none" xmlns="http://www.w3.org/2000/svg">
<path opacity="0.5" d="M455.461 246.397L246.398 246.397C246.398 362.129 340.196 455.461 455.461 455.461L455.461 246.397Z" fill="#FFD666"/>
<path opacity="0.8" d="M209.064 -0.000350952L7.20534e-06 -0.000342899C1.16455e-05 115.265 93.332 209.063 209.064 209.063L209.064 -0.000350952Z" fill="#FFD666"/>
<path d="M429.795 -0.000349963C438.661 -0.000350305 443.328 -0.000335226 446.595 1.8663C449.395 3.26628 452.195 6.06624 453.595 8.8662C455.461 12.1328 455.461 16.7994 455.461 25.6659L455.461 183.397C455.461 192.263 455.461 196.93 453.595 200.197C452.195 202.997 449.395 205.797 446.595 207.197C443.328 209.063 438.661 209.063 429.795 209.063L246.398 209.063L246.398 25.6659C246.398 16.7994 246.398 12.1328 248.264 8.8662C249.664 6.06625 252.464 3.26629 255.264 1.86631C258.531 -0.000328107 263.197 -0.000343546 272.064 -0.000343887L429.795 -0.000349963Z" fill="#FFD666"/>
</svg>
