<svg width="382" height="80" viewBox="0 0 382 80" fill="none" xmlns="http://www.w3.org/2000/svg">
<g clip-path="url(#clip0_114_4)">
<path d="M379.168 31.3456H381.998V8.72336H379.168V31.3456ZM350.48 28.6628C348.089 28.6455 346.718 26.8454 346.718 24.1799C346.736 21.1336 348.089 19.4373 350.656 19.4373C352.924 19.4546 354.207 20.9259 354.242 23.8683C354.207 27.1396 352.994 28.6455 350.48 28.6628ZM371.908 24.0587C371.994 25.1707 371.807 26.2867 371.363 27.3127C371.056 27.8045 370.609 28.1973 370.079 28.4432C369.548 28.6891 368.956 28.7775 368.375 28.6974H367.637V28.6801H363.488C363.541 27.9531 363.594 27.2435 363.594 26.4819C363.679 23.3476 362.763 20.2659 360.975 17.6719C358.883 14.8664 355.85 12.88 352.414 12.0639L352.256 12.0293V14.7641L352.361 14.7987C354.829 15.4915 356.996 16.9656 358.528 18.993C360.059 21.0204 360.87 23.4881 360.834 26.0146C360.834 26.9169 360.734 27.8165 360.535 28.6974H355.56C356.631 27.3796 357.186 25.7277 357.125 24.0414C357.204 23.1536 357.09 22.2594 356.791 21.418C356.493 20.5767 356.016 19.8074 355.393 19.161C354.77 18.5147 354.014 18.006 353.176 17.6687C352.339 17.3314 351.437 17.1733 350.533 17.2046C349.62 17.1816 348.712 17.3453 347.866 17.6853C347.02 18.0252 346.255 18.5341 345.619 19.1797C344.984 19.8254 344.49 20.5938 344.171 21.4366C343.852 22.2793 343.714 23.1781 343.765 24.0761C343.701 25.7463 344.229 27.3864 345.259 28.7147H340.425V28.6801H334.185C334.678 27.5621 334.912 26.35 334.87 25.1319V8.72336H332.005V24.0587C331.97 27.7801 331.109 28.6801 328.489 28.6974H327.54L322.899 11.3889H319.876L324.587 28.6974H318.681V31.3456H369.219C372.875 31.3283 374.721 29.1994 374.721 25.1319V8.72336H371.908V24.0587ZM312.265 24.578C312.341 26.929 311.75 29.2545 310.559 31.2937C309.971 32.3113 309.108 33.148 308.065 33.7104C307.022 34.2727 305.841 34.5386 304.653 34.4785C303.467 34.5263 302.291 34.2551 301.251 33.694C300.21 33.1329 299.344 32.303 298.747 31.2937C297.533 29.2622 296.93 26.9335 297.006 24.578V21.6182H294.176V25.0626C294.05 28.2122 295.115 31.2959 297.165 33.7169C298.083 34.7874 299.231 35.6439 300.526 36.2246C301.821 36.8052 303.23 37.0956 304.653 37.0747H304.671C306.07 37.0964 307.456 36.8092 308.728 36.2341C309.999 35.659 311.124 34.8107 312.018 33.7515C314.108 31.334 315.205 28.2352 315.095 25.0626V8.72336H312.265V24.578ZM282.979 31.3456H285.809V8.72336H282.979V31.3456ZM275.719 24.0587C275.684 27.8147 274.734 28.6801 272.203 28.6974H271.219L266.613 11.3889H263.572L268.283 28.6974H262.377V31.3456H273.064C276.721 31.3283 278.549 29.1994 278.567 25.1319V8.72336H275.754V24.0587H275.719ZM268.248 7.47714H264.275C264.062 7.14716 263.957 6.76021 263.976 6.36943C263.994 5.15783 264.433 4.63857 265.33 4.63857C266.033 4.65588 266.402 4.96741 266.543 5.74629L266.578 5.86746L268.353 5.71169L268.301 5.57325C268.207 4.87976 267.843 4.24954 267.285 3.81646C266.727 3.38339 266.019 3.18159 265.312 3.25391C264.886 3.22324 264.458 3.28482 264.058 3.4344C263.658 3.58399 263.297 3.81792 262.998 4.11976C262.7 4.4216 262.473 4.78408 262.332 5.18168C262.191 5.57929 262.14 6.0024 262.183 6.42135C262.186 6.78721 262.252 7.14997 262.377 7.49447H260.97V9.1388H268.23V7.47714H268.248ZM222.614 31.9168C221.935 31.955 221.257 31.8244 220.643 31.5371C220.029 31.2498 219.497 30.8149 219.099 30.2725C218.374 29.1673 218.023 27.8647 218.097 26.5512C218.011 25.1657 218.361 23.7879 219.099 22.6048C219.504 22.0274 220.053 21.562 220.693 21.2529C221.333 20.9438 222.043 20.8014 222.755 20.8393C223.41 20.7983 224.065 20.927 224.654 21.2124C225.243 21.4978 225.746 21.9301 226.112 22.4663C226.811 23.562 227.149 24.8437 227.079 26.1358C227.044 30.0475 225.585 31.8995 222.614 31.9168ZM246.574 15.8372C244.857 15.7275 243.138 16.0057 241.548 16.6507C239.957 17.2957 238.538 18.2903 237.398 19.5585L237.327 19.6451L237.415 19.7316C238.54 20.8047 239.261 21.4971 239.63 21.8778L239.771 21.999L239.859 21.8606C240.575 20.7526 241.582 19.8557 242.773 19.2647C243.965 18.6736 245.296 18.4104 246.626 18.5027C252.287 18.5027 255.451 21.774 255.468 27.5724C255.468 27.9012 255.433 28.282 255.398 28.6974H230.067C230.26 27.9509 230.355 27.183 230.349 26.4127C230.431 24.3505 229.729 22.3322 228.38 20.7528C227.656 19.9824 226.769 19.3771 225.782 18.9795C224.795 18.5818 223.732 18.4014 222.667 18.4508C221.597 18.3971 220.527 18.5719 219.532 18.9633C218.537 19.3546 217.639 19.9533 216.901 20.7182C215.501 22.2951 214.759 24.3362 214.827 26.43C214.829 27.1931 214.918 27.9535 215.091 28.6974H205.915V15.4218H203.102V28.7667C203.084 32.8169 201.45 34.4611 198.127 34.4785H197.987V37.0575H198.127C202.364 36.8151 204.93 34.9458 205.651 31.3975H216.268C216.976 32.3968 217.933 33.1992 219.048 33.7269C220.163 34.2545 221.397 34.4896 222.632 34.4093H222.649C223.858 34.4678 225.063 34.222 226.148 33.695C227.234 33.1681 228.165 32.3773 228.855 31.3975H258.773V27.7801C258.738 20.4759 253.904 15.8545 246.574 15.8372ZM186.772 31.3456H189.602V8.72336H186.772V31.3456ZM162.373 26.3781C160.872 25.8166 159.567 24.8435 158.611 23.5741C157.812 22.552 157.379 21.2983 157.38 20.0086C157.367 19.3795 157.488 18.7546 157.735 18.1744C157.983 17.5943 158.351 17.0719 158.817 16.641C159.283 16.2102 159.835 15.8805 160.439 15.6734C161.042 15.4664 161.683 15.3865 162.32 15.4391C163.002 15.4026 163.684 15.507 164.323 15.7454C164.962 15.9839 165.543 16.3512 166.029 16.8238C166.456 17.2487 166.79 17.7549 167.01 18.3116C167.231 18.8682 167.334 19.4633 167.312 20.0605C167.295 21.3447 166.858 22.5892 166.064 23.6087C165.118 24.8511 163.84 25.8099 162.373 26.3781ZM143.406 28.6974H125.634C127.391 23.0029 132.788 17.8104 137.288 17.8277C141.191 17.8277 143.493 21.324 143.511 26.655C143.493 27.2954 143.458 27.9878 143.406 28.6974ZM179.512 24.0587C179.598 25.1707 179.411 26.2867 178.967 27.3127C178.665 27.8056 178.222 28.1998 177.693 28.4461C177.165 28.6924 176.575 28.7798 175.996 28.6974H174.678V28.6628H168.754C167.58 28.6693 166.419 28.4335 165.343 27.9705C166.848 27.2869 168.123 26.1939 169.017 24.8203C169.901 23.5065 170.372 21.9653 170.371 20.3893C170.389 19.4547 170.22 18.5257 169.873 17.6555C169.526 16.7853 169.008 15.991 168.349 15.318C166.7 13.8686 164.566 13.0676 162.355 13.0676C160.144 13.0676 158.011 13.8686 156.361 15.318C155.685 15.9802 155.153 16.7718 154.799 17.644C154.446 18.5162 154.277 19.4505 154.304 20.3893C154.308 21.9621 154.771 23.5005 155.64 24.8203C156.541 26.1947 157.822 27.2875 159.332 27.9705C158.252 28.4399 157.084 28.676 155.904 28.6628H146.359C146.394 28.1436 146.394 27.6762 146.394 27.1916C146.376 19.4027 143.405 15.3699 137.446 15.3526C132.911 15.3526 128.13 18.8489 125.563 24.2664L126.143 8.74068H123.155V28.6801H118.69V28.6455H112.661V15.3699H109.831V28.7147C109.813 32.7649 108.178 34.4092 104.856 34.4265H104.715V37.0055H104.873C109.092 36.7632 111.659 34.8939 112.379 31.3456H153.759C155.186 31.3825 156.614 31.3131 158.031 31.1379C159.559 30.8235 161.025 30.2682 162.373 29.4936C163.718 30.2604 165.177 30.8153 166.697 31.1379C168.096 31.3124 169.506 31.3818 170.916 31.3456H176.822C180.461 31.3283 182.324 29.1994 182.342 25.1319V8.72336H179.512V24.0587ZM166.293 7.23485H163.445V10.4369H166.293V7.23485ZM161.511 7.23485H158.646V10.4369H161.511V7.23485ZM91.2853 42.5096H94.1505V39.3075H91.2853V42.5096ZM86.4863 42.5096H89.3692V39.3075H86.4863V42.5096ZM102.395 21.774H93.5002C93.8034 20.0979 94.7249 18.5913 96.0876 17.5434C97.4503 16.4956 99.1582 15.9804 100.883 16.0968H100.989V13.7429H100.883C94.3439 13.7256 90.4591 17.2738 90.002 24.3703V24.5088H99.5999C99.5472 30.636 95.9963 34.4785 90.336 34.4785C85.0273 34.4785 81.5995 31.1552 81.1425 25.5472C81.1073 25.2184 81.1073 23.9722 81.1073 21.8259V21.6875H78.2596V25.1319C78.2259 26.6962 78.5114 28.2512 79.0991 29.705C79.6867 31.1587 80.5647 32.4815 81.6809 33.5952C82.7971 34.7088 84.129 35.5905 85.5976 36.1882C87.0661 36.7859 88.6416 37.0874 90.2306 37.0747H90.4415C92.0199 37.0862 93.585 36.7889 95.0457 36.2C96.5065 35.611 97.8339 34.7422 98.9509 33.644C100.068 32.5458 100.952 31.2401 101.552 29.8026C102.153 28.3651 102.457 26.8246 102.448 25.2704V25.1319L102.395 21.774Z" fill="black"/>
<path d="M19.7583 39.9828C19.7583 21.8089 35.2625 7.04463 54.3879 7.04463C60.2531 7.03298 66.0287 8.46072 71.1929 11.1987C63.2657 3.95994 52.8415 -0.0429959 42.0302 0.000100259C18.8266 0.000100259 0 17.9144 0 40.0001C0 62.0858 18.8266 80.0001 42.0302 80.0001C52.8427 80.0496 63.2692 76.0458 71.1929 68.8015C66.0272 71.5356 60.2525 72.963 54.3879 72.9555C35.2625 72.9209 19.7583 58.1741 19.7583 39.9828Z" fill="#EE3525"/>
<path d="M96.0839 66.1356C97.0736 65.1911 97.8208 64.0283 98.2637 62.7432C98.7315 61.3953 98.9633 59.9788 98.9492 58.5545C98.9494 57.3621 98.7899 56.1748 98.4746 55.0235C98.1587 53.8913 97.6279 52.8283 96.9101 51.8907C96.2014 50.9468 95.281 50.1768 94.2206 49.6406C92.9886 49.0818 91.6483 48.7924 90.2918 48.7924C88.9354 48.7924 87.595 49.0818 86.363 49.6406C85.2974 50.1764 84.3713 50.9463 83.6559 51.8907C82.9559 52.8341 82.4375 53.8959 82.1266 55.0235C81.4704 57.3331 81.4704 59.7758 82.1266 62.0854C82.4413 63.2116 82.9594 64.2728 83.6559 65.2183C84.3671 66.1621 85.2946 66.9271 86.363 67.4511C87.5841 68.0501 88.937 68.3415 90.3006 68.2992C91.4828 68.2977 92.6533 68.0684 93.746 67.6241L90.9685 65.5298L92.7264 63.6086L96.0839 66.1356ZM96.2948 69.5281C94.4579 70.4913 92.3985 70.9685 90.3182 70.9128C88.5187 70.9571 86.731 70.6145 85.0798 69.9089C83.6429 69.2705 82.3606 68.3383 81.318 67.1741C80.3064 66.0143 79.5413 64.6665 79.0679 63.2105C78.568 61.7075 78.3129 60.136 78.3121 58.5545C78.3042 56.9722 78.5595 55.3994 79.0679 53.8985C79.5484 52.4455 80.3127 51.099 81.318 49.9349C82.3609 48.7667 83.6429 47.8288 85.0798 47.1828C86.7324 46.4974 88.5074 46.1443 90.3006 46.1443C92.0938 46.1443 93.8689 46.4974 95.5214 47.1828C96.9531 47.829 98.2293 48.7671 99.2656 49.9349C100.276 51.0981 101.047 52.4445 101.533 53.8985C102.58 57.1057 102.512 60.5648 101.34 63.7297C100.728 65.3369 99.7545 66.7867 98.4921 67.9703L101.797 70.4281L100.109 72.4186L96.2948 69.5281Z" fill="black"/>
<path d="M115.314 62.12C114.699 62.2412 114.084 62.345 113.398 62.4143C112.713 62.4835 112.062 62.5873 111.394 62.6739C110.772 62.7562 110.163 62.9191 109.584 63.1585C109.067 63.3483 108.612 63.6711 108.265 64.0932C107.905 64.5787 107.725 65.1715 107.756 65.7721C107.739 66.1845 107.843 66.5929 108.054 66.9491C108.251 67.2612 108.515 67.5271 108.828 67.728C109.173 67.9384 109.554 68.085 109.953 68.1607C110.381 68.2504 110.816 68.2968 111.254 68.2992C112.113 68.3129 112.969 68.1842 113.785 67.9184C114.407 67.7056 114.985 67.3831 115.49 66.9664C115.9 66.6135 116.235 66.184 116.475 65.7029C116.673 65.3034 116.781 64.8665 116.791 64.4221V61.5315C116.342 61.8207 115.841 62.0206 115.314 62.12ZM119.498 70.757C119.145 70.7972 118.787 70.7562 118.453 70.6372C118.118 70.5182 117.817 70.3243 117.571 70.071C117.326 69.8177 117.144 69.5117 117.039 69.1772C116.934 68.8427 116.909 68.4888 116.967 68.1434C116.205 69.0391 115.226 69.73 114.119 70.1512C112.988 70.5594 111.791 70.7646 110.586 70.757C109.812 70.7581 109.039 70.6768 108.283 70.5147C107.602 70.3592 106.958 70.0772 106.385 69.6838C105.831 69.3033 105.383 68.7914 105.084 68.1953C104.759 67.5011 104.597 66.744 104.609 65.9798C104.571 65.154 104.747 64.3322 105.119 63.5912C105.451 62.986 105.928 62.4692 106.508 62.0854C107.107 61.6919 107.765 61.394 108.459 61.2027C109.197 60.995 109.953 60.8392 110.726 60.7007C111.535 60.5449 112.326 60.4238 113.064 60.3546C113.722 60.2933 114.374 60.1834 115.016 60.0257C115.507 59.9232 115.966 59.7033 116.351 59.3853C116.52 59.2323 116.652 59.0441 116.737 58.8344C116.822 58.6248 116.859 58.399 116.844 58.1737C116.869 57.6528 116.741 57.136 116.475 56.6852C116.226 56.3323 115.902 56.037 115.525 55.8197C115.119 55.6126 114.679 55.4778 114.225 55.4216C113.759 55.3533 113.289 55.3185 112.818 55.3178C111.723 55.278 110.635 55.5102 109.654 55.9928C109.212 56.2626 108.852 56.6441 108.611 57.0977C108.369 57.5514 108.256 58.0604 108.283 58.5718H105.295C105.312 57.6355 105.552 56.7163 105.998 55.8889C106.401 55.1758 106.974 54.5699 107.668 54.1235C108.411 53.6569 109.232 53.3229 110.094 53.1369C111.034 52.9319 111.996 52.8332 112.959 52.8427C113.77 52.8474 114.581 52.9052 115.385 53.0158C116.152 53.1113 116.896 53.3398 117.582 53.6908C118.223 54.0316 118.767 54.5256 119.164 55.1274C119.582 55.8666 119.783 56.7055 119.744 57.5506V66.3779C119.729 66.8665 119.776 67.3549 119.885 67.8318C119.955 68.1434 120.236 68.2992 120.693 68.2992C121.006 68.2942 121.315 68.2356 121.608 68.1261V70.3243C120.952 70.6391 120.227 70.7879 119.498 70.757Z" fill="black"/>
<path d="M131.857 53.241V55.7334H128.253V66.3782C128.248 66.6462 128.278 66.9137 128.341 67.1744C128.388 67.3662 128.508 67.5332 128.675 67.6417C128.882 67.7669 129.118 67.8383 129.361 67.8494C129.74 67.8882 130.122 67.9055 130.503 67.9013H131.874V70.3937H129.607C128.941 70.4036 128.276 70.3515 127.62 70.238C127.139 70.1719 126.684 69.9807 126.302 69.6841C125.941 69.3952 125.683 69.0014 125.564 68.559C125.375 67.9363 125.292 67.2872 125.318 66.6378V55.7334H122.224V53.241H125.318V48.1003H128.288V53.241H131.857Z" fill="black"/>
<path d="M144.619 62.1201C143.986 62.2413 143.371 62.3452 142.703 62.4144C142.035 62.4836 141.367 62.5875 140.681 62.674C140.06 62.7654 139.453 62.928 138.87 63.1586C138.359 63.3486 137.909 63.6716 137.57 64.0933C137.196 64.5729 137.009 65.1685 137.042 65.7723C137.026 66.1846 137.129 66.593 137.341 66.9492C137.533 67.2652 137.798 67.5321 138.115 67.7281C138.452 67.9412 138.828 68.0881 139.222 68.1608C139.656 68.2506 140.097 68.2969 140.54 68.2993C141.394 68.3117 142.244 68.183 143.054 67.9185C143.676 67.7057 144.254 67.3832 144.759 66.9665C145.169 66.6136 145.504 66.1841 145.744 65.703C145.929 65.2998 146.03 64.8644 146.042 64.4222V61.5316C145.615 61.8245 145.13 62.025 144.619 62.1201ZM148.767 70.7571C148.102 70.7898 147.449 70.5733 146.939 70.1513C146.686 69.8841 146.494 69.5667 146.376 69.2204C146.257 68.8741 146.216 68.507 146.253 68.1435C145.482 69.0362 144.497 69.7262 143.388 70.1513C142.257 70.5608 141.06 70.7661 139.855 70.7571C139.081 70.7564 138.309 70.6751 137.552 70.5148C136.871 70.3593 136.227 70.0773 135.654 69.6839C135.095 69.3083 134.647 68.7951 134.353 68.1954C134.031 67.4678 133.869 66.6814 133.878 65.8878C133.888 65.0943 134.067 64.3116 134.405 63.5914C134.738 62.9861 135.214 62.4693 135.794 62.0855C136.396 61.6856 137.061 61.3873 137.763 61.2028C138.504 60.9971 139.255 60.8295 140.013 60.7008C140.822 60.545 141.595 60.4239 142.333 60.3547C142.991 60.2934 143.643 60.1835 144.285 60.0258C144.773 59.9272 145.227 59.7067 145.603 59.3854C145.777 59.2361 145.914 59.049 146.003 58.8387C146.091 58.6284 146.129 58.4008 146.113 58.1738C146.129 57.6538 146.002 57.1392 145.744 56.6853C145.504 56.3247 145.178 56.0275 144.794 55.8198C144.387 55.6152 143.947 55.4805 143.494 55.4217C143.022 55.354 142.546 55.3193 142.07 55.3179C140.974 55.2801 139.887 55.5122 138.906 55.9929C138.464 56.2627 138.103 56.6442 137.862 57.0979C137.621 57.5515 137.508 58.0606 137.534 58.5719H134.564C134.581 57.6356 134.821 56.7164 135.267 55.889C135.676 55.175 136.255 54.5693 136.954 54.1236C137.696 53.654 138.518 53.3198 139.38 53.137C140.321 52.9311 141.282 52.8324 142.245 52.8428C143.057 52.8488 143.867 52.9066 144.671 53.0159C145.439 53.1089 146.183 53.3375 146.869 53.6909C147.508 54.0274 148.048 54.5227 148.433 55.1275C148.871 55.8599 149.085 56.7014 149.048 57.5507V66.3781C149.029 66.8658 149.071 67.3541 149.171 67.832C149.242 68.1435 149.523 68.2993 149.98 68.2993C150.292 68.2928 150.602 68.2343 150.894 68.1262V70.3244C150.234 70.6429 149.502 70.7918 148.767 70.7571Z" fill="black"/>
<path d="M156.097 53.2411V56.8586H156.167C156.751 55.6129 157.669 54.5476 158.822 53.7776C160.027 53.0811 161.417 52.7557 162.812 52.843V55.8374C161.778 55.814 160.748 55.9722 159.771 56.3047C158.986 56.5755 158.288 57.0475 157.749 57.672C157.221 58.3051 156.837 59.0431 156.624 59.8356C156.386 60.7983 156.273 61.7872 156.29 62.7781V70.3938H153.302V53.2411H156.097Z" fill="black"/>
<path d="M187.212 57.4641C187.859 57.3754 188.481 57.1575 189.04 56.8237C189.563 56.4992 189.998 56.0535 190.305 55.5256C190.698 54.717 190.852 53.8159 190.75 52.9253C190.647 52.0346 190.292 51.1903 189.725 50.4888C189.27 50.0796 188.733 49.7683 188.149 49.5746C187.565 49.3809 186.947 49.3091 186.333 49.3638H178.053V57.6199H184.997C185.738 57.6222 186.478 57.5701 187.212 57.4641ZM186.509 46.7156C188.509 46.6067 190.486 47.1882 192.098 48.3599C192.766 48.916 193.296 49.6155 193.647 50.4046C193.997 51.1938 194.159 52.0515 194.12 52.912C194.148 54.2415 193.788 55.551 193.083 56.6853C192.317 57.8313 191.123 58.6336 189.761 58.9181V58.9873C190.393 59.0819 190.997 59.3059 191.536 59.645C191.972 59.9379 192.342 60.3148 192.626 60.7528C192.898 61.2011 193.105 61.6846 193.241 62.1894C193.372 62.7366 193.466 63.2916 193.522 63.851C193.575 64.4222 193.61 65.0107 193.628 65.6165C193.642 66.2027 193.701 66.787 193.804 67.3646C193.891 67.9231 194.026 68.4732 194.208 69.009C194.37 69.5113 194.633 69.9763 194.981 70.3763H191.255C191.007 70.0992 190.848 69.7559 190.798 69.3897C190.698 68.9287 190.645 68.4591 190.639 67.9878C190.622 67.4685 190.604 66.9146 190.587 66.3088C190.554 65.7157 190.478 65.1256 190.358 64.5433C190.272 63.9893 190.154 63.4404 190.007 62.899C189.871 62.4123 189.644 61.9546 189.339 61.549C189.017 61.1571 188.608 60.8432 188.143 60.6316C187.524 60.3636 186.85 60.2392 186.175 60.2681H178.053V70.3763H174.731V46.6982H186.509V46.7156Z" fill="black"/>
<path d="M210.063 58.2776C209.816 57.6974 209.451 57.1732 208.991 56.7372C208.523 56.2938 207.974 55.9414 207.373 55.6987C206.73 55.4464 206.044 55.3172 205.352 55.3179C204.63 55.3039 203.912 55.4334 203.242 55.6987C202.056 56.197 201.112 57.1272 200.606 58.2949C200.347 58.888 200.192 59.5201 200.149 60.1642H210.573C210.501 59.5136 210.329 58.8775 210.063 58.2776ZM210.784 69.2859C209.282 70.2992 207.488 70.8091 205.668 70.7398C204.383 70.7645 203.105 70.5411 201.906 70.082C200.878 69.6618 199.958 69.0212 199.213 68.2068C198.468 67.3924 197.917 66.4247 197.6 65.3741C197.224 64.2024 197.017 62.9848 196.984 61.7566C196.971 60.5343 197.185 59.3199 197.617 58.1738C198.02 57.13 198.623 56.1721 199.393 55.3525C200.153 54.5546 201.075 53.9235 202.1 53.5005C203.176 53.0432 204.338 52.8132 205.51 52.8254C206.807 52.7642 208.097 53.0427 209.249 53.6326C210.401 54.2225 211.373 55.1027 212.067 56.1833C212.712 57.1464 213.165 58.2212 213.403 59.3507C213.637 60.431 213.737 61.5353 213.702 62.6394H200.131C200.113 63.366 200.214 64.0906 200.43 64.7856C200.632 65.4467 200.98 66.0556 201.449 66.5684C201.95 67.1055 202.561 67.5305 203.242 67.8146C204.049 68.1448 204.918 68.304 205.791 68.2819C206.89 68.3229 207.976 68.0332 208.903 67.4512C209.744 66.8508 210.312 65.9497 210.485 64.9414H213.42C213.13 66.6653 212.188 68.2173 210.784 69.2859Z" fill="black"/>
<path d="M218.994 64.3011C219.208 65.0361 219.553 65.7278 220.014 66.3434C220.474 66.9498 221.077 67.4369 221.772 67.7628C222.553 68.1381 223.416 68.3222 224.285 68.2993C225.171 68.3277 226.048 68.131 226.834 67.7282C227.513 67.3782 228.098 66.8738 228.539 66.2569C228.995 65.6349 229.318 64.9283 229.489 64.1799C229.698 63.4123 229.805 62.6209 229.805 61.8259C229.807 61.0024 229.701 60.1821 229.489 59.3854C229.296 58.6406 228.955 57.9406 228.487 57.3257C228.011 56.722 227.405 56.231 226.711 55.8891C225.894 55.5084 224.996 55.3245 224.092 55.3525C223.203 55.3275 222.322 55.5177 221.525 55.9064C220.857 56.2648 220.284 56.7751 219.855 57.395C219.414 58.0401 219.104 58.7629 218.941 59.5239C218.758 60.3308 218.664 61.1549 218.66 61.9817C218.658 62.7666 218.77 63.5478 218.994 64.3011ZM229.699 70.3936V68.0743H229.629C229.152 69.0214 228.329 69.7567 227.326 70.134C226.217 70.5593 225.036 70.7709 223.846 70.7572C222.587 70.7864 221.338 70.538 220.189 70.0302C219.193 69.5732 218.31 68.9054 217.605 68.0743C216.901 67.2313 216.369 66.2613 216.041 65.2184C215.685 64.104 215.507 62.9421 215.514 61.774C215.509 60.6073 215.681 59.4464 216.023 58.3296C216.339 57.29 216.865 56.3244 217.57 55.491C218.277 54.6705 219.159 54.0143 220.154 53.5697C221.296 53.0809 222.531 52.8389 223.776 52.8601C224.277 52.8665 224.776 52.9128 225.27 52.9986C225.824 53.0898 226.366 53.2407 226.887 53.4486C227.43 53.6604 227.944 53.9395 228.416 54.2794C228.893 54.6217 229.299 55.0506 229.612 55.5429H229.682V46.7329H232.67V70.3936H229.699Z" fill="black"/>
<path d="M262.044 50.056C260.691 49.1901 259.104 48.7495 257.491 48.7925C256.168 48.7543 254.854 49.0272 253.659 49.5886C252.626 50.0975 251.724 50.8315 251.022 51.7349C250.325 52.6522 249.812 53.692 249.51 54.7985C249.176 55.9641 249.01 57.1702 249.018 58.3813C249.007 59.6724 249.173 60.959 249.51 62.2066C249.797 63.3449 250.311 64.4157 251.022 65.3567C251.727 66.2644 252.635 66.9991 253.676 67.503C254.88 68.058 256.198 68.3306 257.526 68.2992C258.524 68.3169 259.516 68.1405 260.444 67.7799C261.27 67.454 262.022 66.9718 262.659 66.3606C263.289 65.7373 263.785 64.9957 264.118 64.1797C264.477 63.3135 264.691 62.3958 264.751 61.4623H268.073C268.031 62.7957 267.713 64.1065 267.137 65.3144C266.562 66.5223 265.743 67.6018 264.729 68.4867C263.715 69.3716 262.528 70.0432 261.241 70.4604C259.954 70.8776 258.594 71.0315 257.245 70.9128C255.504 70.9503 253.774 70.6321 252.165 69.9781C250.776 69.3898 249.543 68.4956 248.561 67.3645C247.585 66.2166 246.856 64.886 246.417 63.4528C245.929 61.8825 245.686 60.2484 245.696 58.6064C245.685 56.9533 245.953 55.3099 246.487 53.7427C246.966 52.2893 247.731 50.9426 248.737 49.779C249.758 48.632 251.025 47.7217 252.446 47.1135C254.059 46.446 255.795 46.1159 257.544 46.1443C258.798 46.14 260.046 46.3089 261.253 46.6462C262.368 46.9496 263.42 47.4416 264.364 48.1001C265.286 48.7388 266.064 49.5578 266.649 50.506C267.286 51.5163 267.693 52.6498 267.845 53.8293H264.522C264.227 52.3018 263.337 50.9481 262.044 50.056Z" fill="black"/>
<path d="M274.155 53.2409V56.8585H274.208C274.797 55.6163 275.713 54.5524 276.862 53.7775C278.068 53.0831 279.457 52.7578 280.852 52.8429V55.8372C279.818 55.8124 278.788 55.9707 277.811 56.3046C277.021 56.5754 276.317 57.0471 275.772 57.6719C275.249 58.3061 274.871 59.0442 274.665 59.8355C274.419 60.7973 274.301 61.7863 274.313 62.778V70.3937H271.342V53.2409H274.155Z" fill="black"/>
<path d="M294.299 58.2777C294.052 57.6976 293.687 57.1733 293.227 56.7373C292.759 56.2939 292.21 55.9415 291.609 55.6988C290.961 55.4448 290.268 55.3156 289.57 55.318C288.854 55.3056 288.143 55.4351 287.478 55.6988C286.884 55.9414 286.346 56.3006 285.896 56.7546C285.455 57.2022 285.097 57.7239 284.842 58.2951C284.591 58.8908 284.437 59.5215 284.385 60.1644H294.791C294.733 59.5131 294.567 58.8757 294.299 58.2777ZM295.02 69.286C293.517 70.2993 291.724 70.8092 289.904 70.7399C288.619 70.7647 287.341 70.5412 286.142 70.0822C285.123 69.6681 284.21 69.0354 283.47 68.2301C282.724 67.4045 282.166 66.4306 281.836 65.3742C281.46 64.2025 281.253 62.9849 281.22 61.7568C281.207 60.5344 281.421 59.32 281.853 58.1739C282.256 57.1343 282.853 56.1775 283.611 55.3526C284.374 54.5584 285.296 53.928 286.318 53.5006C287.395 53.0433 288.556 52.8133 289.728 52.8256C291.134 52.7715 292.527 53.1009 293.754 53.7775C294.781 54.3747 295.653 55.1982 296.303 56.1834C296.94 57.1503 297.393 58.2237 297.639 59.3509C297.885 60.4292 297.98 61.5358 297.92 62.6395H284.367C284.338 63.3642 284.427 64.0889 284.631 64.7858C284.842 65.4617 285.202 66.0834 285.685 66.6069C286.168 67.1304 286.763 67.5428 287.426 67.8147C288.239 68.1433 289.113 68.3024 289.992 68.2821C291.086 68.3281 292.167 68.0377 293.086 67.4513C293.926 66.8477 294.499 65.9491 294.686 64.9415H297.621C297.373 66.6718 296.437 68.2343 295.02 69.286Z" fill="black"/>
<path d="M303.018 66.5513C303.294 66.9763 303.667 67.3319 304.108 67.5898C304.596 67.8508 305.125 68.0321 305.672 68.1263C306.25 68.2456 306.84 68.3036 307.43 68.2994C307.924 68.2975 308.417 68.2628 308.907 68.1956C309.389 68.1342 309.862 68.0121 310.313 67.8321C310.731 67.6642 311.099 67.3965 311.385 67.0532C311.672 66.6748 311.815 66.2093 311.79 65.7378C311.8 65.4099 311.724 65.085 311.57 64.7941C311.416 64.5032 311.189 64.256 310.911 64.0762C310.237 63.66 309.502 63.3504 308.731 63.1588C307.793 62.9035 306.843 62.6956 305.883 62.5357C304.91 62.3636 303.956 62.0969 303.035 61.7395C302.205 61.435 301.458 60.943 300.856 60.3029C300.224 59.5929 299.902 58.6663 299.959 57.724C299.943 56.9424 300.156 56.1729 300.574 55.5084C300.983 54.8931 301.523 54.3732 302.157 53.9853C302.832 53.588 303.568 53.3015 304.336 53.1372C305.119 52.9522 305.922 52.8593 306.727 52.8602C307.682 52.8567 308.635 52.9378 309.575 53.1026C310.384 53.251 311.158 53.5444 311.86 53.968C312.528 54.3783 313.079 54.9503 313.46 55.6296C313.875 56.4434 314.115 57.3335 314.163 58.2432H311.174C311.157 57.7485 310.999 57.2686 310.717 56.8585C310.465 56.4918 310.127 56.1892 309.733 55.9758C309.32 55.7506 308.876 55.5873 308.414 55.4911C307.939 55.4022 307.457 55.3559 306.973 55.3526C306.521 55.3562 306.069 55.3851 305.62 55.4392C305.19 55.5003 304.77 55.6167 304.371 55.7854C304.02 55.941 303.708 56.1716 303.457 56.4604C303.217 56.7669 303.093 57.1464 303.106 57.5335C303.101 57.7625 303.147 57.9898 303.241 58.1992C303.335 58.4087 303.475 58.5951 303.651 58.7452C304.055 59.0986 304.527 59.3693 305.039 59.5413C305.657 59.7642 306.292 59.9379 306.938 60.0606C307.641 60.199 308.327 60.3548 309.03 60.5106C309.772 60.6643 310.505 60.8549 311.227 61.0818C311.9 61.284 312.539 61.5814 313.126 61.9645C313.66 62.3265 314.115 62.7917 314.461 63.3319C314.813 63.9615 314.983 64.6737 314.954 65.3916C314.99 66.2993 314.752 67.1971 314.268 67.9706C313.822 68.6583 313.213 69.2286 312.493 69.6322C311.714 70.0566 310.871 70.3547 309.997 70.5149C309.086 70.6806 308.162 70.7618 307.237 70.7573C306.273 70.7668 305.312 70.668 304.371 70.463C303.508 70.2846 302.685 69.9501 301.946 69.4764C301.246 69.0215 300.673 68.4031 300.276 67.6764C299.83 66.8427 299.59 65.9179 299.573 64.9762H302.543C302.556 65.5334 302.72 66.0772 303.018 66.5513Z" fill="black"/>
<path d="M328.788 56.2181C327.918 55.5943 326.858 55.2828 325.783 55.3354C324.849 55.3095 323.922 55.4992 323.075 55.8892C322.385 56.2368 321.792 56.7484 321.353 57.3778C320.899 58.0243 320.582 58.7542 320.421 59.524C320.228 60.3411 320.134 61.1777 320.14 62.0165C320.132 62.7994 320.232 63.5797 320.439 64.3358C320.622 65.0554 320.938 65.7359 321.37 66.3436C321.796 66.9376 322.363 67.4191 323.023 67.7456C323.773 68.121 324.607 68.3054 325.449 68.2821C326.056 68.3419 326.669 68.2805 327.251 68.1013C327.834 67.9221 328.373 67.6289 328.838 67.2394C329.302 66.8498 329.682 66.3719 329.955 65.8343C330.227 65.2967 330.387 64.7105 330.423 64.1108H333.464C333.259 65.9864 332.373 67.7259 330.968 69.0091C329.413 70.2334 327.454 70.8497 325.466 70.74C324.224 70.7642 322.988 70.5526 321.827 70.1168C320.807 69.7296 319.892 69.1133 319.155 68.3168C318.432 67.5107 317.882 66.5686 317.538 65.5474C317.176 64.4048 316.998 63.2133 317.011 62.0165C317.002 60.7971 317.18 59.5835 317.538 58.4163C317.865 57.3536 318.403 56.3652 319.12 55.5084C319.857 54.6739 320.768 54.0067 321.792 53.5526C322.976 53.0606 324.252 52.8188 325.536 52.843C326.508 52.8397 327.477 52.9559 328.419 53.1891C329.273 53.3935 330.079 53.7579 330.792 54.2623C331.483 54.7517 332.063 55.3763 332.498 56.097C332.974 56.9087 333.268 57.8119 333.359 58.7452H330.265C330.082 57.7609 329.561 56.8686 328.788 56.2181Z" fill="black"/>
<path d="M348.599 58.2777C348.07 57.1047 347.1 56.18 345.892 55.6987C345.243 55.4448 344.551 55.3155 343.853 55.3179C343.136 55.3039 342.425 55.4335 341.761 55.6987C341.164 55.9373 340.625 56.297 340.179 56.7545C339.275 57.6751 338.738 58.8857 338.667 60.1643H349.073C349.03 59.5126 348.87 58.8738 348.599 58.2777ZM349.319 69.2859C347.823 70.2968 346.035 70.8066 344.222 70.7398C342.936 70.7677 341.657 70.5441 340.46 70.0821C339.427 69.6692 338.503 69.031 337.757 68.2155C337.011 67.4 336.463 66.4285 336.153 65.3742C335.769 64.2045 335.562 62.9857 335.538 61.7567C335.516 60.5336 335.731 59.3176 336.171 58.1738C336.561 57.1277 337.158 56.1686 337.929 55.3525C338.679 54.5513 339.596 53.9195 340.618 53.5005C341.694 53.0432 342.856 52.8132 344.028 52.8255C345.328 52.7613 346.622 53.0384 347.777 53.6284C348.932 54.2184 349.907 55.1002 350.603 56.1833C351.242 57.1473 351.69 58.2222 351.921 59.3508C352.164 60.4298 352.264 61.5351 352.22 62.6394H338.667C338.64 63.3665 338.741 64.0925 338.966 64.7857C339.168 65.4429 339.51 66.0505 339.968 66.5685C340.464 67.1093 341.077 67.535 341.761 67.8147C342.568 68.1432 343.436 68.3024 344.31 68.282C345.404 68.328 346.485 68.0377 347.403 67.4512C348.249 66.8526 348.823 65.9517 349.003 64.9414H351.956C351.666 66.6654 350.724 68.2173 349.319 69.2859Z" fill="black"/>
<path d="M357.827 53.2409V55.9584H357.898C358.486 54.9496 359.349 54.1231 360.39 53.5725C361.431 53.0219 362.607 52.7691 363.786 52.8428C364.803 52.8162 365.816 52.9746 366.775 53.3102C367.512 53.5811 368.17 54.027 368.691 54.6083C369.199 55.1703 369.555 55.8488 369.728 56.5815C369.933 57.4144 370.033 58.2689 370.027 59.1259V70.3937H367.056V58.7797C367.078 58.3144 367.002 57.8497 366.832 57.4148C366.663 56.9799 366.404 56.5842 366.072 56.2526C365.704 55.9316 365.276 55.6854 364.811 55.5279C364.346 55.3705 363.855 55.305 363.365 55.3353C362.56 55.3129 361.76 55.4482 361.009 55.7333C360.373 55.9784 359.801 56.3632 359.339 56.8584C358.894 57.35 358.559 57.9278 358.355 58.5546C358.115 59.2448 358.002 59.9716 358.021 60.7009V70.3937H355.032V53.2409H357.827Z" fill="black"/>
<path d="M381.964 53.241V55.7334H378.36V66.3782C378.355 66.6462 378.385 66.9137 378.448 67.1744C378.495 67.3662 378.615 67.5332 378.782 67.6417C378.988 67.7694 379.225 67.8411 379.468 67.8494C379.841 67.8883 380.217 67.9056 380.593 67.9013H381.946V70.3937H379.679C379.013 70.4028 378.348 70.3507 377.692 70.238C377.205 70.1714 376.745 69.9805 376.356 69.6841C376.001 69.3871 375.739 68.9969 375.6 68.559C375.42 67.9346 375.337 67.2868 375.354 66.6378V55.7334H372.261V53.241H375.354V48.1003H378.325V53.241H381.964Z" fill="black"/>
</g>
<defs>
<clipPath id="clip0_114_4">
<rect width="382" height="80" fill="white"/>
</clipPath>
</defs>
</svg>
