<svg width="48" height="50" viewBox="0 0 48 50" fill="none" xmlns="http://www.w3.org/2000/svg">
<path fill-rule="evenodd" clip-rule="evenodd" d="M0 3C0 1.34326 1.34314 0 3 0H31C32.6569 0 34 1.34326 34 3V5C34 5.55225 33.5523 6 33 6C32.4477 6 32 5.55225 32 5V3C32 2.44775 31.5523 2 31 2H3C2.44769 2 2 2.44775 2 3V47C2 47.5522 2.44769 48 3 48H31C31.5523 48 32 47.5522 32 47V34.5C32 33.9478 32.4477 33.5 33 33.5C33.5523 33.5 34 33.9478 34 34.5V47C34 48.6567 32.6569 50 31 50H3C1.34314 50 0 48.6567 0 47V3ZM17 43C17 44.1045 16.1046 45 15 45C13.8954 45 13 44.1045 13 43C13 41.8955 13.8954 41 15 41C16.1046 41 17 41.8955 17 43ZM16 11C16 9.34314 17.3431 8 19 8H45C46.6569 8 48 9.34315 48 11V13.7263V29C48 30.6569 46.6569 32 45 32H19C17.3431 32 16 30.6569 16 29V13.7263V11ZM46 11V13.7263C46 14.1148 45.775 14.4682 45.4229 14.6325L32.4229 20.6991C32.1548 20.8242 31.8452 20.8242 31.5771 20.6991L18.5771 14.6325C18.225 14.4682 18 14.1148 18 13.7263V11C18 10.4477 18.4477 10 19 10H45C45.5523 10 46 10.4477 46 11ZM30.7313 22.5115L18 16.5702V29C18 29.5523 18.4477 30 19 30H45C45.5523 30 46 29.5523 46 29V16.5702L33.2687 22.5115C32.4645 22.8868 31.5355 22.8868 30.7313 22.5115Z" fill="#1E1E1E"/>
</svg>
