<svg width="49" height="50" viewBox="0 0 49 50" fill="none" xmlns="http://www.w3.org/2000/svg">
<path fill-rule="evenodd" clip-rule="evenodd" d="M24.0145 4.64251L16.5159 0.143349L16.5036 0.136084C16.4356 0.0964096 16.364 0.0653953 16.2904 0.0430609C16.101 -0.0144087 15.8987 -0.0142986 15.7096 0.043061C15.636 0.0653954 15.5644 0.0964096 15.4964 0.136084L15.4841 0.143349L0.485504 9.14251C0.184299 9.32323 0 9.64874 0 10V49C0 49.3603 0.193793 49.6927 0.507301 49.8702C0.82081 50.0477 1.20557 50.0429 1.5145 49.8575L16 41.1662L30.4842 49.8567L30.4964 49.8639C30.5316 49.8844 30.5677 49.9026 30.6046 49.9185C30.8895 50.0412 31.2184 50.0255 31.4927 49.8702C31.5009 49.8656 31.509 49.8608 31.5171 49.8559L46.5145 40.8575C46.8157 40.6768 47 40.3513 47 40V27.5C47 26.9477 46.5523 26.5 46 26.5C45.4477 26.5 45 26.9477 45 27.5V39.4338L32 47.2338V27V26C32 25.4477 31.5523 25 31 25C30.4477 25 30 25.4477 30 26V27V47.2338L17 39.4338V2.76619L22.9855 6.35749C23.4591 6.64164 24.0733 6.48808 24.3575 6.0145C24.6416 5.54092 24.4881 4.92666 24.0145 4.64251ZM15 2.76619V39.4338L2 47.2338V10.5662L15 2.76619ZM38 8.00006C36.3431 8.00006 35 9.34321 35 11.0001C35 12.6569 36.3431 14.0001 38 14.0001C39.6569 14.0001 41 12.6569 41 11.0001C41 9.34321 39.6569 8.00006 38 8.00006ZM33 11.0001C33 8.23864 35.2386 6.00006 38 6.00006C40.7614 6.00006 43 8.23864 43 11.0001C43 13.7615 40.7614 16.0001 38 16.0001C35.2386 16.0001 33 13.7615 33 11.0001ZM29 11.0001C29 6.0295 33.0294 2.00006 38 2.00006C42.9706 2.00006 47 6.0295 47 11.0001C47 12.1256 46.4743 13.6349 45.555 15.3596C44.6519 17.0541 43.4359 18.835 42.2021 20.4684C40.971 22.0981 39.7376 23.5608 38.8108 24.6172C38.5022 24.9689 38.2281 25.275 38 25.5266C37.7719 25.275 37.4978 24.9689 37.1892 24.6172C36.2624 23.5608 35.029 22.0981 33.7979 20.4684C32.5641 18.835 31.3481 17.0541 30.445 15.3596C29.5257 13.6349 29 12.1256 29 11.0001ZM37.2763 27.6902C37.2765 27.6904 37.2766 27.6905 38 27.0001L37.2766 27.6905L38 28.4484L38.7234 27.6905L38 27.0001C38.7234 27.6905 38.7235 27.6904 38.7237 27.6902L38.7242 27.6897L38.7259 27.6878L38.7321 27.6814L38.755 27.6572C38.7749 27.6362 38.804 27.6053 38.8417 27.5652C38.917 27.4849 39.0266 27.3672 39.1657 27.2161C39.4437 26.9138 39.8396 26.4771 40.3142 25.9362C41.2624 24.8555 42.529 23.3538 43.7979 21.6739C45.0641 19.9976 46.3481 18.1237 47.32 16.3004C48.2757 14.5073 49 12.636 49 11.0001C49 4.92493 44.0751 6.10773e-05 38 6.10773e-05C31.9249 6.10773e-05 27 4.92493 27 11.0001C27 12.636 27.7243 14.5073 28.68 16.3004C29.6519 18.1237 30.9359 19.9976 32.2021 21.6739C33.471 23.3538 34.7376 24.8555 35.6858 25.9362C36.1604 26.4771 36.5563 26.9138 36.8343 27.2161C36.9734 27.3672 37.083 27.4849 37.1583 27.5652C37.196 27.6053 37.2251 27.6362 37.245 27.6572L37.2679 27.6814L37.2741 27.6878L37.2758 27.6897L37.2763 27.6902Z" fill="#1E1E1E"/>
</svg>
