<svg width="120" height="120" viewBox="0 0 120 120" fill="none" xmlns="http://www.w3.org/2000/svg">
<circle cx="60" cy="60" r="60" fill="#4CA4FD" fill-opacity="0.1"/>
<g clip-path="url(#clip0_306_602)">
<path d="M91.15 44.2999H74.9V34.0699C75.6287 33.8123 76.2599 33.3359 76.7074 32.7058C77.1549 32.0757 77.3968 31.3228 77.4 30.5499V20.5499C77.4 19.5554 77.0049 18.6015 76.3017 17.8983C75.5984 17.195 74.6446 16.7999 73.65 16.7999H46.15C45.1555 16.7999 44.2016 17.195 43.4984 17.8983C42.7951 18.6015 42.4 19.5554 42.4 20.5499V30.5499C42.4032 31.3228 42.6451 32.0757 43.0926 32.7058C43.5401 33.3359 44.1714 33.8123 44.9 34.0699V44.2999H28.65C28.3185 44.2999 28.0006 44.4316 27.7661 44.666C27.5317 44.9005 27.4 45.2184 27.4 45.5499V50.5499C27.4 50.8814 27.5317 51.1994 27.7661 51.4338C28.0006 51.6682 28.3185 51.7999 28.65 51.7999H29.9V60.5499C29.9032 61.3228 30.1451 62.0757 30.5926 62.7058C31.0401 63.3359 31.6714 63.8123 32.4 64.0699V95.5499C32.4 95.8814 32.5317 96.1994 32.7661 96.4338C33.0006 96.6682 33.3185 96.7999 33.65 96.7999H38.65C38.9815 96.7999 39.2995 96.6682 39.5339 96.4338C39.7683 96.1994 39.9 95.8814 39.9 95.5499V64.2999H42.4V65.5499C42.4032 66.3228 42.6451 67.0757 43.0926 67.7058C43.5401 68.3359 44.1714 68.8123 44.9 69.0699V95.5499C44.9 95.8814 45.0317 96.1994 45.2661 96.4338C45.5006 96.6682 45.8185 96.7999 46.15 96.7999H51.15C51.4815 96.7999 51.7995 96.6682 52.0339 96.4338C52.2683 96.1994 52.4 95.8814 52.4 95.5499V69.2999H67.4V95.5499C67.4 95.8814 67.5317 96.1994 67.7661 96.4338C68.0006 96.6682 68.3185 96.7999 68.65 96.7999H73.65C73.9815 96.7999 74.2995 96.6682 74.5339 96.4338C74.7683 96.1994 74.9 95.8814 74.9 95.5499V69.0699C75.6287 68.8123 76.2599 68.3359 76.7074 67.7058C77.1549 67.0757 77.3968 66.3228 77.4 65.5499V64.2999H79.9V95.5499C79.9 95.8814 80.0317 96.1994 80.2661 96.4338C80.5006 96.6682 80.8185 96.7999 81.15 96.7999H86.15C86.4815 96.7999 86.7995 96.6682 87.0339 96.4338C87.2683 96.1994 87.4 95.8814 87.4 95.5499V64.0699C88.1287 63.8123 88.7599 63.3359 89.2074 62.7058C89.6549 62.0757 89.8968 61.3228 89.9 60.5499V51.7999H91.15C91.4815 51.7999 91.7995 51.6682 92.0339 51.4338C92.2683 51.1994 92.4 50.8814 92.4 50.5499V45.5499C92.4 45.2184 92.2683 44.9005 92.0339 44.666C91.7995 44.4316 91.4815 44.2999 91.15 44.2999ZM44.9 20.5499C44.9 20.2184 45.0317 19.9005 45.2661 19.666C45.5006 19.4316 45.8185 19.2999 46.15 19.2999H73.65C73.9815 19.2999 74.2995 19.4316 74.5339 19.666C74.7683 19.9005 74.9 20.2184 74.9 20.5499V30.5499C74.9 30.8814 74.7683 31.1994 74.5339 31.4338C74.2995 31.6682 73.9815 31.7999 73.65 31.7999H46.15C45.8185 31.7999 45.5006 31.6682 45.2661 31.4338C45.0317 31.1994 44.9 30.8814 44.9 30.5499V20.5499ZM72.4 34.2999V44.2999H69.9V34.2999H72.4ZM67.4 34.2999V44.2999H52.4V34.2999H67.4ZM49.9 34.2999V44.2999H47.4V34.2999H49.9ZM37.4 94.2999H34.9V64.2999H37.4V94.2999ZM49.9 94.2999H47.4V69.2999H49.9V94.2999ZM72.4 94.2999H69.9V69.2999H72.4V94.2999ZM74.9 65.5499C74.9 65.8814 74.7683 66.1994 74.5339 66.4338C74.2995 66.6682 73.9815 66.7999 73.65 66.7999H46.15C45.8185 66.7999 45.5006 66.6682 45.2661 66.4338C45.0317 66.1994 44.9 65.8814 44.9 65.5499V64.2999H74.9V65.5499ZM84.9 94.2999H82.4V64.2999H84.9V94.2999ZM89.9 49.2999H76.15C75.8185 49.2999 75.5006 49.4316 75.2661 49.666C75.0317 49.9005 74.9 50.2184 74.9 50.5499C74.9 50.8814 75.0317 51.1994 75.2661 51.4338C75.5006 51.6682 75.8185 51.7999 76.15 51.7999H87.4V60.5499C87.4 60.8814 87.2683 61.1994 87.0339 61.4338C86.7995 61.6682 86.4815 61.7999 86.15 61.7999H33.65C33.3185 61.7999 33.0006 61.6682 32.7661 61.4338C32.5317 61.1994 32.4 60.8814 32.4 60.5499V51.7999H71.15C71.4815 51.7999 71.7995 51.6682 72.0339 51.4338C72.2683 51.1994 72.4 50.8814 72.4 50.5499C72.4 50.2184 72.2683 49.9005 72.0339 49.666C71.7995 49.4316 71.4815 49.2999 71.15 49.2999H29.9V46.7999H89.9V49.2999Z" fill="#4CA4FD"/>
</g>
<defs>
<clipPath id="clip0_306_602">
<rect width="80" height="80" fill="white" transform="translate(19.9 16.7999)"/>
</clipPath>
</defs>
</svg>
