<svg width="120" height="120" viewBox="0 0 120 120" fill="none" xmlns="http://www.w3.org/2000/svg">
<circle cx="60" cy="60" r="60" fill="#E42281" fill-opacity="0.1"/>
<g clip-path="url(#clip0_525_9)">
<path d="M77.1403 90.0833V85.3117C77.1403 83.5333 79.7769 83.5333 79.7769 85.3117V98.6667C79.7769 99.0203 79.638 99.3594 79.3907 99.6095C79.1435 99.8595 78.8082 100 78.4586 100C78.1089 100 77.7736 99.8595 77.5264 99.6095C77.2792 99.3594 77.1403 99.0203 77.1403 98.6667V90.0833Z" fill="#E42281"/>
<path d="M86.3683 90.0834V80C86.3753 78.072 86.0049 76.1616 85.2787 74.379C84.5524 72.5964 83.4845 70.9767 82.1365 69.6134C80.7886 68.2501 79.1872 67.17 77.4247 66.4354C75.6622 65.7009 73.7733 65.3263 71.8671 65.3334C70.1483 65.2917 70.1483 62.705 71.8671 62.6667C76.4123 62.6667 80.7714 64.4929 83.9853 67.7435C87.1993 70.9941 89.0049 75.4029 89.0049 80V98.6667C89.0049 99.0203 88.866 99.3594 88.6188 99.6095C88.3715 99.8595 88.0362 100 87.6866 100C87.337 100 87.0016 99.8595 86.7544 99.6095C86.5072 99.3594 86.3683 99.0203 86.3683 98.6667V90.0834Z" fill="#E42281"/>
<path d="M40.228 90.0833V85.3117C40.228 83.5333 42.8646 83.5333 42.8646 85.3117V90.0833H42.8432V98.6867C42.8428 99.0345 42.706 99.3681 42.463 99.6142C42.2199 99.8604 41.8903 99.9991 41.5463 100C41.2016 99.9995 40.8712 99.8609 40.6275 99.6143C40.3837 99.3678 40.2466 99.0336 40.2462 98.685V90.0833H40.228Z" fill="#E42281"/>
<path d="M48.1378 62.6667C49.8566 62.7067 49.8566 65.295 48.1378 65.3334C46.2312 65.325 44.3418 65.6986 42.5787 66.4327C40.8155 67.1668 39.2137 68.2468 37.8654 69.6104C36.5172 70.974 35.4494 72.5942 34.7236 74.3774C33.9977 76.1607 33.6283 78.0716 33.6366 80V97.3334V98.6667C33.634 99.0195 33.4943 99.3571 33.2476 99.6066C33.001 99.8561 32.6671 99.9974 32.3183 100C31.9687 100 31.6334 99.8595 31.3861 99.6095C31.1389 99.3594 31 99.0203 31 98.6667V80C31 75.4029 32.8056 70.9941 36.0196 67.7435C39.2335 64.4929 43.5926 62.6667 48.1378 62.6667Z" fill="#E42281"/>
<path d="M71.5968 50.59C71.0441 53.0982 69.7077 55.3598 67.7853 57.04V64C67.7843 64.131 67.7648 64.2612 67.7276 64.3867C67.3973 65.2893 66.8943 66.1172 66.2474 66.823C65.6004 67.5288 64.8222 68.0987 63.9573 68.5V82.6667C63.957 82.8425 63.9224 83.0164 63.8553 83.1786C63.7883 83.3408 63.6902 83.488 63.5668 83.6117L60.9302 86.2683C60.8077 86.3931 60.662 86.492 60.5015 86.5596C60.341 86.6271 60.1688 86.6619 59.995 86.6619C59.8212 86.6619 59.6491 86.6271 59.4886 86.5596C59.3281 86.492 59.1824 86.3931 59.0599 86.2683L56.4233 83.6117C56.1793 83.3594 56.0442 83.0196 56.0476 82.6667V73.3333C56.0476 71.555 58.6841 71.555 58.6841 73.3333V82.1217L60.0024 83.455L61.3207 82.1217V69.2433C60.8835 69.3 60.4432 69.3295 60.0024 69.3317C53.7208 69.3317 52.2871 64.3817 52.2871 64.3817C52.2509 64.2668 52.2309 64.1472 52.2278 64.0267L52.1009 56.9317C50.2476 55.2688 48.9609 53.0563 48.4245 50.61C45.3364 50.055 42.8646 47.6867 42.8646 44C42.8646 41.775 44.8519 40.0333 46.9414 40.01C46.0961 40.01 45.5012 39.4117 45.5045 38.6767V34.6667C45.5045 30.7768 47.0323 27.0463 49.7518 24.2958C52.4713 21.5452 56.1598 20 60.0057 20C63.8517 20 67.5401 21.5452 70.2597 24.2958C72.9792 27.0463 74.507 30.7768 74.507 34.6667V38.6667C74.507 39.4033 73.922 40 73.0766 40C75.0986 40.0417 77.1403 41.725 77.1403 44C77.1403 47.6867 74.5778 50.1533 71.5968 50.59ZM54.8528 63.6917C54.8528 63.6917 55.8828 66.6667 60.0024 66.6667C64.1221 66.6667 65.152 63.695 65.152 63.695V58.7983C63.5343 59.5968 61.7567 60.0085 59.9566 60.0015C58.1565 59.9946 56.3821 59.5692 54.7705 58.7583L54.8528 63.6917ZM50.7744 48C50.7744 50.4754 51.7466 52.8493 53.4772 54.5997C55.2078 56.35 57.555 57.3333 60.0024 57.3333C62.4499 57.3333 64.7971 56.35 66.5277 54.5997C68.2583 52.8493 69.2305 50.4754 69.2305 48V40H50.7744V48ZM48.1378 43.125C47.2595 42.125 45.5111 42.84 45.5111 44.0417C45.5259 46.1217 46.6893 47.35 48.1378 47.8017V43.125ZM71.8671 34.6667C71.8671 31.4841 70.6171 28.4318 68.392 26.1814C66.167 23.9309 63.1491 22.6667 60.0024 22.6667C56.8557 22.6667 53.8379 23.9309 51.6129 26.1814C49.3878 28.4318 48.1378 31.4841 48.1378 34.6667V37.3333H71.8671V34.6667ZM71.8671 43.135V47.8017C73.3156 47.35 74.4954 46.0467 74.4954 44.0417C74.4905 42.8333 72.691 42.1483 71.8671 43.1333V43.135Z" fill="#E42281"/>
</g>
<defs>
<clipPath id="clip0_525_9">
<rect width="58" height="80" fill="white" transform="matrix(-1 0 0 1 89 20)"/>
</clipPath>
</defs>
</svg>
